<?xml version="1.0" encoding="utf-8" standalone="no"?>
<!DOCTYPE svg PUBLIC "-//W3C//DTD SVG 1.1//EN"
  "http://www.w3.org/Graphics/SVG/1.1/DTD/svg11.dtd">
<svg xmlns:xlink="http://www.w3.org/1999/xlink" width="720pt" height="432pt" viewBox="0 0 720 432" xmlns="http://www.w3.org/2000/svg" version="1.1">
 <metadata>
  <rdf:RDF xmlns:dc="http://purl.org/dc/elements/1.1/" xmlns:cc="http://creativecommons.org/ns#" xmlns:rdf="http://www.w3.org/1999/02/22-rdf-syntax-ns#">
   <cc:Work>
    <dc:type rdf:resource="http://purl.org/dc/dcmitype/StillImage"/>
    <dc:date>2025-02-19T20:31:18.186792</dc:date>
    <dc:format>image/svg+xml</dc:format>
    <dc:creator>
     <cc:Agent>
      <dc:title>Matplotlib v3.10.0, https://matplotlib.org/</dc:title>
     </cc:Agent>
    </dc:creator>
   </cc:Work>
  </rdf:RDF>
 </metadata>
 <defs>
  <style type="text/css">*{stroke-linejoin: round; stroke-linecap: butt}</style>
 </defs>
 <g id="figure_1">
  <g id="patch_1">
   <path d="M 0 432 
L 720 432 
L 720 0 
L 0 0 
z
" style="fill: #ffffff"/>
  </g>
  <g id="axes_1">
   <g id="patch_2">
    <path d="M 50.6 374.2 
L 706.05 374.2 
L 706.05 40.56 
L 50.6 40.56 
z
" style="fill: #ffffff"/>
   </g>
   <g id="table_1">
    <g id="patch_3">
     <path d="M 509.415 90.606 
L 601.178 90.606 
L 601.178 73.924 
L 509.415 73.924 
z
" style="fill: #ffffff; stroke: #000000; stroke-linejoin: miter"/>
    </g>
    <g id="text_1">
     <!-- x/σ -->
     <g transform="translate(547.484 85.024375) scale(0.1 -0.1)">
      <defs>
       <path id="DejaVuSans-78" d="M 3513 3500 
L 2247 1797 
L 3578 0 
L 2900 0 
L 1881 1375 
L 863 0 
L 184 0 
L 1544 1831 
L 300 3500 
L 978 3500 
L 1906 2253 
L 2834 3500 
L 3513 3500 
z
" transform="scale(0.015625)"/>
       <path id="DejaVuSans-2f" d="M 1625 4666 
L 2156 4666 
L 531 -594 
L 0 -594 
L 1625 4666 
z
" transform="scale(0.015625)"/>
       <path id="DejaVuSans-3c3" d="M 1959 3044 
Q 1484 3044 1228 2700 
Q 959 2341 959 1747 
Q 959 1119 1226 758 
Q 1494 397 1959 397 
Q 2419 397 2687 759 
Q 2956 1122 2956 1747 
Q 2956 2319 2688 2700 
Q 2441 3044 1959 3044 
z
M 1959 3500 
L 3869 3500 
L 3869 2925 
L 3225 2925 
Q 3566 2438 3566 1747 
Q 3566 888 3138 400 
Q 2709 -91 1959 -91 
Q 1206 -91 781 400 
Q 353 888 353 1747 
Q 353 2613 781 3097 
Q 1134 3500 1959 3500 
z
" transform="scale(0.015625)"/>
      </defs>
      <use xlink:href="#DejaVuSans-78"/>
      <use xlink:href="#DejaVuSans-2f" transform="translate(59.179688 0)"/>
      <use xlink:href="#DejaVuSans-3c3" transform="translate(92.871094 0)"/>
     </g>
    </g>
    <g id="patch_4">
     <path d="M 601.178 90.606 
L 692.941 90.606 
L 692.941 73.924 
L 601.178 73.924 
z
" style="fill: #ffffff; stroke: #000000; stroke-linejoin: miter"/>
    </g>
    <g id="text_2">
     <!-- Probability -->
     <g transform="translate(620.630594 85.024375) scale(0.1 -0.1)">
      <defs>
       <path id="DejaVuSans-50" d="M 1259 4147 
L 1259 2394 
L 2053 2394 
Q 2494 2394 2734 2622 
Q 2975 2850 2975 3272 
Q 2975 3691 2734 3919 
Q 2494 4147 2053 4147 
L 1259 4147 
z
M 628 4666 
L 2053 4666 
Q 2838 4666 3239 4311 
Q 3641 3956 3641 3272 
Q 3641 2581 3239 2228 
Q 2838 1875 2053 1875 
L 1259 1875 
L 1259 0 
L 628 0 
L 628 4666 
z
" transform="scale(0.015625)"/>
       <path id="DejaVuSans-72" d="M 2631 2963 
Q 2534 3019 2420 3045 
Q 2306 3072 2169 3072 
Q 1681 3072 1420 2755 
Q 1159 2438 1159 1844 
L 1159 0 
L 581 0 
L 581 3500 
L 1159 3500 
L 1159 2956 
Q 1341 3275 1631 3429 
Q 1922 3584 2338 3584 
Q 2397 3584 2469 3576 
Q 2541 3569 2628 3553 
L 2631 2963 
z
" transform="scale(0.015625)"/>
       <path id="DejaVuSans-6f" d="M 1959 3097 
Q 1497 3097 1228 2736 
Q 959 2375 959 1747 
Q 959 1119 1226 758 
Q 1494 397 1959 397 
Q 2419 397 2687 759 
Q 2956 1122 2956 1747 
Q 2956 2369 2687 2733 
Q 2419 3097 1959 3097 
z
M 1959 3584 
Q 2709 3584 3137 3096 
Q 3566 2609 3566 1747 
Q 3566 888 3137 398 
Q 2709 -91 1959 -91 
Q 1206 -91 779 398 
Q 353 888 353 1747 
Q 353 2609 779 3096 
Q 1206 3584 1959 3584 
z
" transform="scale(0.015625)"/>
       <path id="DejaVuSans-62" d="M 3116 1747 
Q 3116 2381 2855 2742 
Q 2594 3103 2138 3103 
Q 1681 3103 1420 2742 
Q 1159 2381 1159 1747 
Q 1159 1113 1420 752 
Q 1681 391 2138 391 
Q 2594 391 2855 752 
Q 3116 1113 3116 1747 
z
M 1159 2969 
Q 1341 3281 1617 3432 
Q 1894 3584 2278 3584 
Q 2916 3584 3314 3078 
Q 3713 2572 3713 1747 
Q 3713 922 3314 415 
Q 2916 -91 2278 -91 
Q 1894 -91 1617 61 
Q 1341 213 1159 525 
L 1159 0 
L 581 0 
L 581 4863 
L 1159 4863 
L 1159 2969 
z
" transform="scale(0.015625)"/>
       <path id="DejaVuSans-61" d="M 2194 1759 
Q 1497 1759 1228 1600 
Q 959 1441 959 1056 
Q 959 750 1161 570 
Q 1363 391 1709 391 
Q 2188 391 2477 730 
Q 2766 1069 2766 1631 
L 2766 1759 
L 2194 1759 
z
M 3341 1997 
L 3341 0 
L 2766 0 
L 2766 531 
Q 2569 213 2275 61 
Q 1981 -91 1556 -91 
Q 1019 -91 701 211 
Q 384 513 384 1019 
Q 384 1609 779 1909 
Q 1175 2209 1959 2209 
L 2766 2209 
L 2766 2266 
Q 2766 2663 2505 2880 
Q 2244 3097 1772 3097 
Q 1472 3097 1187 3025 
Q 903 2953 641 2809 
L 641 3341 
Q 956 3463 1253 3523 
Q 1550 3584 1831 3584 
Q 2591 3584 2966 3190 
Q 3341 2797 3341 1997 
z
" transform="scale(0.015625)"/>
       <path id="DejaVuSans-69" d="M 603 3500 
L 1178 3500 
L 1178 0 
L 603 0 
L 603 3500 
z
M 603 4863 
L 1178 4863 
L 1178 4134 
L 603 4134 
L 603 4863 
z
" transform="scale(0.015625)"/>
       <path id="DejaVuSans-6c" d="M 603 4863 
L 1178 4863 
L 1178 0 
L 603 0 
L 603 4863 
z
" transform="scale(0.015625)"/>
       <path id="DejaVuSans-74" d="M 1172 4494 
L 1172 3500 
L 2356 3500 
L 2356 3053 
L 1172 3053 
L 1172 1153 
Q 1172 725 1289 603 
Q 1406 481 1766 481 
L 2356 481 
L 2356 0 
L 1766 0 
Q 1100 0 847 248 
Q 594 497 594 1153 
L 594 3053 
L 172 3053 
L 172 3500 
L 594 3500 
L 594 4494 
L 1172 4494 
z
" transform="scale(0.015625)"/>
       <path id="DejaVuSans-79" d="M 2059 -325 
Q 1816 -950 1584 -1140 
Q 1353 -1331 966 -1331 
L 506 -1331 
L 506 -850 
L 844 -850 
Q 1081 -850 1212 -737 
Q 1344 -625 1503 -206 
L 1606 56 
L 191 3500 
L 800 3500 
L 1894 763 
L 2988 3500 
L 3597 3500 
L 2059 -325 
z
" transform="scale(0.015625)"/>
      </defs>
      <use xlink:href="#DejaVuSans-50"/>
      <use xlink:href="#DejaVuSans-72" transform="translate(58.552734 0)"/>
      <use xlink:href="#DejaVuSans-6f" transform="translate(97.416016 0)"/>
      <use xlink:href="#DejaVuSans-62" transform="translate(158.597656 0)"/>
      <use xlink:href="#DejaVuSans-61" transform="translate(222.074219 0)"/>
      <use xlink:href="#DejaVuSans-62" transform="translate(283.353516 0)"/>
      <use xlink:href="#DejaVuSans-69" transform="translate(346.830078 0)"/>
      <use xlink:href="#DejaVuSans-6c" transform="translate(374.613281 0)"/>
      <use xlink:href="#DejaVuSans-69" transform="translate(402.396484 0)"/>
      <use xlink:href="#DejaVuSans-74" transform="translate(430.179688 0)"/>
      <use xlink:href="#DejaVuSans-79" transform="translate(469.388672 0)"/>
     </g>
    </g>
    <g id="patch_5">
     <path d="M 509.415 107.288 
L 601.178 107.288 
L 601.178 90.606 
L 509.415 90.606 
z
" style="fill: #ffffff; stroke: #000000; stroke-linejoin: miter"/>
    </g>
    <g id="text_3">
     <!-- 0.0 -->
     <g transform="translate(547.344937 101.706375) scale(0.1 -0.1)">
      <defs>
       <path id="DejaVuSans-30" d="M 2034 4250 
Q 1547 4250 1301 3770 
Q 1056 3291 1056 2328 
Q 1056 1369 1301 889 
Q 1547 409 2034 409 
Q 2525 409 2770 889 
Q 3016 1369 3016 2328 
Q 3016 3291 2770 3770 
Q 2525 4250 2034 4250 
z
M 2034 4750 
Q 2819 4750 3233 4129 
Q 3647 3509 3647 2328 
Q 3647 1150 3233 529 
Q 2819 -91 2034 -91 
Q 1250 -91 836 529 
Q 422 1150 422 2328 
Q 422 3509 836 4129 
Q 1250 4750 2034 4750 
z
" transform="scale(0.015625)"/>
       <path id="DejaVuSans-2e" d="M 684 794 
L 1344 794 
L 1344 0 
L 684 0 
L 684 794 
z
" transform="scale(0.015625)"/>
      </defs>
      <use xlink:href="#DejaVuSans-30"/>
      <use xlink:href="#DejaVuSans-2e" transform="translate(63.623047 0)"/>
      <use xlink:href="#DejaVuSans-30" transform="translate(95.410156 0)"/>
     </g>
    </g>
    <g id="patch_6">
     <path d="M 601.178 107.288 
L 692.941 107.288 
L 692.941 90.606 
L 601.178 90.606 
z
" style="fill: #ffffff; stroke: #000000; stroke-linejoin: miter"/>
    </g>
    <g id="text_4">
     <!-- 0.000 -->
     <g transform="translate(632.745438 101.706375) scale(0.1 -0.1)">
      <use xlink:href="#DejaVuSans-30"/>
      <use xlink:href="#DejaVuSans-2e" transform="translate(63.623047 0)"/>
      <use xlink:href="#DejaVuSans-30" transform="translate(95.410156 0)"/>
      <use xlink:href="#DejaVuSans-30" transform="translate(159.033203 0)"/>
      <use xlink:href="#DejaVuSans-30" transform="translate(222.65625 0)"/>
     </g>
    </g>
    <g id="patch_7">
     <path d="M 509.415 123.97 
L 601.178 123.97 
L 601.178 107.288 
L 509.415 107.288 
z
" style="fill: #ffffff; stroke: #000000; stroke-linejoin: miter"/>
    </g>
    <g id="text_5">
     <!-- 0.5 -->
     <g transform="translate(547.344937 118.388375) scale(0.1 -0.1)">
      <defs>
       <path id="DejaVuSans-35" d="M 691 4666 
L 3169 4666 
L 3169 4134 
L 1269 4134 
L 1269 2991 
Q 1406 3038 1543 3061 
Q 1681 3084 1819 3084 
Q 2600 3084 3056 2656 
Q 3513 2228 3513 1497 
Q 3513 744 3044 326 
Q 2575 -91 1722 -91 
Q 1428 -91 1123 -41 
Q 819 9 494 109 
L 494 744 
Q 775 591 1075 516 
Q 1375 441 1709 441 
Q 2250 441 2565 725 
Q 2881 1009 2881 1497 
Q 2881 1984 2565 2268 
Q 2250 2553 1709 2553 
Q 1456 2553 1204 2497 
Q 953 2441 691 2322 
L 691 4666 
z
" transform="scale(0.015625)"/>
      </defs>
      <use xlink:href="#DejaVuSans-30"/>
      <use xlink:href="#DejaVuSans-2e" transform="translate(63.623047 0)"/>
      <use xlink:href="#DejaVuSans-35" transform="translate(95.410156 0)"/>
     </g>
    </g>
    <g id="patch_8">
     <path d="M 601.178 123.97 
L 692.941 123.97 
L 692.941 107.288 
L 601.178 107.288 
z
" style="fill: #ffffff; stroke: #000000; stroke-linejoin: miter"/>
    </g>
    <g id="text_6">
     <!-- 0.192 -->
     <g transform="translate(632.745438 118.388375) scale(0.1 -0.1)">
      <defs>
       <path id="DejaVuSans-31" d="M 794 531 
L 1825 531 
L 1825 4091 
L 703 3866 
L 703 4441 
L 1819 4666 
L 2450 4666 
L 2450 531 
L 3481 531 
L 3481 0 
L 794 0 
L 794 531 
z
" transform="scale(0.015625)"/>
       <path id="DejaVuSans-39" d="M 703 97 
L 703 672 
Q 941 559 1184 500 
Q 1428 441 1663 441 
Q 2288 441 2617 861 
Q 2947 1281 2994 2138 
Q 2813 1869 2534 1725 
Q 2256 1581 1919 1581 
Q 1219 1581 811 2004 
Q 403 2428 403 3163 
Q 403 3881 828 4315 
Q 1253 4750 1959 4750 
Q 2769 4750 3195 4129 
Q 3622 3509 3622 2328 
Q 3622 1225 3098 567 
Q 2575 -91 1691 -91 
Q 1453 -91 1209 -44 
Q 966 3 703 97 
z
M 1959 2075 
Q 2384 2075 2632 2365 
Q 2881 2656 2881 3163 
Q 2881 3666 2632 3958 
Q 2384 4250 1959 4250 
Q 1534 4250 1286 3958 
Q 1038 3666 1038 3163 
Q 1038 2656 1286 2365 
Q 1534 2075 1959 2075 
z
" transform="scale(0.015625)"/>
       <path id="DejaVuSans-32" d="M 1228 531 
L 3431 531 
L 3431 0 
L 469 0 
L 469 531 
Q 828 903 1448 1529 
Q 2069 2156 2228 2338 
Q 2531 2678 2651 2914 
Q 2772 3150 2772 3378 
Q 2772 3750 2511 3984 
Q 2250 4219 1831 4219 
Q 1534 4219 1204 4116 
Q 875 4013 500 3803 
L 500 4441 
Q 881 4594 1212 4672 
Q 1544 4750 1819 4750 
Q 2544 4750 2975 4387 
Q 3406 4025 3406 3419 
Q 3406 3131 3298 2873 
Q 3191 2616 2906 2266 
Q 2828 2175 2409 1742 
Q 1991 1309 1228 531 
z
" transform="scale(0.015625)"/>
      </defs>
      <use xlink:href="#DejaVuSans-30"/>
      <use xlink:href="#DejaVuSans-2e" transform="translate(63.623047 0)"/>
      <use xlink:href="#DejaVuSans-31" transform="translate(95.410156 0)"/>
      <use xlink:href="#DejaVuSans-39" transform="translate(159.033203 0)"/>
      <use xlink:href="#DejaVuSans-32" transform="translate(222.65625 0)"/>
     </g>
    </g>
    <g id="patch_9">
     <path d="M 509.415 140.652 
L 601.178 140.652 
L 601.178 123.97 
L 509.415 123.97 
z
" style="fill: #ffffff; stroke: #000000; stroke-linejoin: miter"/>
    </g>
    <g id="text_7">
     <!-- 1.0 -->
     <g transform="translate(547.344937 135.070375) scale(0.1 -0.1)">
      <use xlink:href="#DejaVuSans-31"/>
      <use xlink:href="#DejaVuSans-2e" transform="translate(63.623047 0)"/>
      <use xlink:href="#DejaVuSans-30" transform="translate(95.410156 0)"/>
     </g>
    </g>
    <g id="patch_10">
     <path d="M 601.178 140.652 
L 692.941 140.652 
L 692.941 123.97 
L 601.178 123.97 
z
" style="fill: #ffffff; stroke: #000000; stroke-linejoin: miter"/>
    </g>
    <g id="text_8">
     <!-- 0.341 -->
     <g transform="translate(632.745438 135.070375) scale(0.1 -0.1)">
      <defs>
       <path id="DejaVuSans-33" d="M 2597 2516 
Q 3050 2419 3304 2112 
Q 3559 1806 3559 1356 
Q 3559 666 3084 287 
Q 2609 -91 1734 -91 
Q 1441 -91 1130 -33 
Q 819 25 488 141 
L 488 750 
Q 750 597 1062 519 
Q 1375 441 1716 441 
Q 2309 441 2620 675 
Q 2931 909 2931 1356 
Q 2931 1769 2642 2001 
Q 2353 2234 1838 2234 
L 1294 2234 
L 1294 2753 
L 1863 2753 
Q 2328 2753 2575 2939 
Q 2822 3125 2822 3475 
Q 2822 3834 2567 4026 
Q 2313 4219 1838 4219 
Q 1578 4219 1281 4162 
Q 984 4106 628 3988 
L 628 4550 
Q 988 4650 1302 4700 
Q 1616 4750 1894 4750 
Q 2613 4750 3031 4423 
Q 3450 4097 3450 3541 
Q 3450 3153 3228 2886 
Q 3006 2619 2597 2516 
z
" transform="scale(0.015625)"/>
       <path id="DejaVuSans-34" d="M 2419 4116 
L 825 1625 
L 2419 1625 
L 2419 4116 
z
M 2253 4666 
L 3047 4666 
L 3047 1625 
L 3713 1625 
L 3713 1100 
L 3047 1100 
L 3047 0 
L 2419 0 
L 2419 1100 
L 313 1100 
L 313 1709 
L 2253 4666 
z
" transform="scale(0.015625)"/>
      </defs>
      <use xlink:href="#DejaVuSans-30"/>
      <use xlink:href="#DejaVuSans-2e" transform="translate(63.623047 0)"/>
      <use xlink:href="#DejaVuSans-33" transform="translate(95.410156 0)"/>
      <use xlink:href="#DejaVuSans-34" transform="translate(159.033203 0)"/>
      <use xlink:href="#DejaVuSans-31" transform="translate(222.65625 0)"/>
     </g>
    </g>
    <g id="patch_11">
     <path d="M 509.415 157.334 
L 601.178 157.334 
L 601.178 140.652 
L 509.415 140.652 
z
" style="fill: #ffffff; stroke: #000000; stroke-linejoin: miter"/>
    </g>
    <g id="text_9">
     <!-- 1.5 -->
     <g transform="translate(547.344937 151.752375) scale(0.1 -0.1)">
      <use xlink:href="#DejaVuSans-31"/>
      <use xlink:href="#DejaVuSans-2e" transform="translate(63.623047 0)"/>
      <use xlink:href="#DejaVuSans-35" transform="translate(95.410156 0)"/>
     </g>
    </g>
    <g id="patch_12">
     <path d="M 601.178 157.334 
L 692.941 157.334 
L 692.941 140.652 
L 601.178 140.652 
z
" style="fill: #ffffff; stroke: #000000; stroke-linejoin: miter"/>
    </g>
    <g id="text_10">
     <!-- 0.433 -->
     <g transform="translate(632.745438 151.752375) scale(0.1 -0.1)">
      <use xlink:href="#DejaVuSans-30"/>
      <use xlink:href="#DejaVuSans-2e" transform="translate(63.623047 0)"/>
      <use xlink:href="#DejaVuSans-34" transform="translate(95.410156 0)"/>
      <use xlink:href="#DejaVuSans-33" transform="translate(159.033203 0)"/>
      <use xlink:href="#DejaVuSans-33" transform="translate(222.65625 0)"/>
     </g>
    </g>
    <g id="patch_13">
     <path d="M 509.415 174.016 
L 601.178 174.016 
L 601.178 157.334 
L 509.415 157.334 
z
" style="fill: #ffffff; stroke: #000000; stroke-linejoin: miter"/>
    </g>
    <g id="text_11">
     <!-- 2.0 -->
     <g transform="translate(547.344937 168.434375) scale(0.1 -0.1)">
      <use xlink:href="#DejaVuSans-32"/>
      <use xlink:href="#DejaVuSans-2e" transform="translate(63.623047 0)"/>
      <use xlink:href="#DejaVuSans-30" transform="translate(95.410156 0)"/>
     </g>
    </g>
    <g id="patch_14">
     <path d="M 601.178 174.016 
L 692.941 174.016 
L 692.941 157.334 
L 601.178 157.334 
z
" style="fill: #ffffff; stroke: #000000; stroke-linejoin: miter"/>
    </g>
    <g id="text_12">
     <!-- 0.477 -->
     <g transform="translate(632.745438 168.434375) scale(0.1 -0.1)">
      <defs>
       <path id="DejaVuSans-37" d="M 525 4666 
L 3525 4666 
L 3525 4397 
L 1831 0 
L 1172 0 
L 2766 4134 
L 525 4134 
L 525 4666 
z
" transform="scale(0.015625)"/>
      </defs>
      <use xlink:href="#DejaVuSans-30"/>
      <use xlink:href="#DejaVuSans-2e" transform="translate(63.623047 0)"/>
      <use xlink:href="#DejaVuSans-34" transform="translate(95.410156 0)"/>
      <use xlink:href="#DejaVuSans-37" transform="translate(159.033203 0)"/>
      <use xlink:href="#DejaVuSans-37" transform="translate(222.65625 0)"/>
     </g>
    </g>
    <g id="patch_15">
     <path d="M 509.415 190.698 
L 601.178 190.698 
L 601.178 174.016 
L 509.415 174.016 
z
" style="fill: #ffffff; stroke: #000000; stroke-linejoin: miter"/>
    </g>
    <g id="text_13">
     <!-- 3.0 -->
     <g transform="translate(547.344937 185.116375) scale(0.1 -0.1)">
      <use xlink:href="#DejaVuSans-33"/>
      <use xlink:href="#DejaVuSans-2e" transform="translate(63.623047 0)"/>
      <use xlink:href="#DejaVuSans-30" transform="translate(95.410156 0)"/>
     </g>
    </g>
    <g id="patch_16">
     <path d="M 601.178 190.698 
L 692.941 190.698 
L 692.941 174.016 
L 601.178 174.016 
z
" style="fill: #ffffff; stroke: #000000; stroke-linejoin: miter"/>
    </g>
    <g id="text_14">
     <!-- 0.499 -->
     <g transform="translate(632.745438 185.116375) scale(0.1 -0.1)">
      <use xlink:href="#DejaVuSans-30"/>
      <use xlink:href="#DejaVuSans-2e" transform="translate(63.623047 0)"/>
      <use xlink:href="#DejaVuSans-34" transform="translate(95.410156 0)"/>
      <use xlink:href="#DejaVuSans-39" transform="translate(159.033203 0)"/>
      <use xlink:href="#DejaVuSans-39" transform="translate(222.65625 0)"/>
     </g>
    </g>
   </g>
   <g id="FillBetweenPolyCollection_1">
    <defs>
     <path id="m616f29b80d" d="M 378.325 -78.6525 
L 378.325 -355.95063 
L 379.428451 -355.936484 
L 380.531902 -355.89405 
L 381.635354 -355.823342 
L 382.738805 -355.72438 
L 383.842256 -355.597195 
L 384.945707 -355.441826 
L 386.049158 -355.258321 
L 387.152609 -355.046736 
L 388.256061 -354.807134 
L 389.359512 -354.53959 
L 390.462963 -354.244185 
L 391.566414 -353.92101 
L 392.669865 -353.570161 
L 393.773316 -353.191748 
L 394.876768 -352.785883 
L 395.980219 -352.352692 
L 397.08367 -351.892305 
L 398.187121 -351.404862 
L 399.290572 -350.89051 
L 400.394024 -350.349406 
L 401.497475 -349.781712 
L 402.600926 -349.1876 
L 403.704377 -348.56725 
L 404.807828 -347.920846 
L 405.911279 -347.248585 
L 407.014731 -346.550666 
L 408.118182 -345.8273 
L 409.221633 -345.078702 
L 410.325084 -344.305096 
L 411.428535 -343.506711 
L 412.531987 -342.683785 
L 413.635438 -341.836562 
L 414.738889 -340.965292 
L 415.84234 -340.070232 
L 416.945791 -339.151647 
L 418.049242 -338.209805 
L 419.152694 -337.244983 
L 420.256145 -336.257462 
L 421.359596 -335.247531 
L 422.463047 -334.215482 
L 423.566498 -333.161616 
L 424.669949 -332.086236 
L 425.773401 -330.989652 
L 426.876852 -329.87218 
L 427.980303 -328.73414 
L 429.083754 -327.575856 
L 430.187205 -326.397657 
L 431.290657 -325.199879 
L 432.394108 -323.982859 
L 433.497559 -322.746941 
L 434.60101 -321.49247 
L 435.704461 -320.219798 
L 436.807912 -318.929279 
L 437.911364 -317.621271 
L 439.014815 -316.296135 
L 440.118266 -314.954237 
L 441.221717 -313.595943 
L 442.325168 -312.221624 
L 443.42862 -310.831654 
L 444.532071 -309.426408 
L 445.635522 -308.006266 
L 446.738973 -306.571607 
L 447.842424 -305.122814 
L 448.945875 -303.660271 
L 450.049327 -302.184365 
L 451.152778 -300.695485 
L 452.256229 -299.194017 
L 453.35968 -297.680355 
L 454.463131 -296.154888 
L 455.566582 -294.61801 
L 456.670034 -293.070112 
L 457.773485 -291.51159 
L 458.876936 -289.942838 
L 459.980387 -288.364248 
L 461.083838 -286.776217 
L 462.18729 -285.179138 
L 463.290741 -283.573405 
L 464.394192 -281.959412 
L 465.497643 -280.337552 
L 466.601094 -278.708217 
L 467.704545 -277.071799 
L 468.807997 -275.428689 
L 469.911448 -273.779276 
L 471.014899 -272.123947 
L 472.11835 -270.463089 
L 473.221801 -268.797088 
L 474.325253 -267.126326 
L 475.428704 -265.451184 
L 476.532155 -263.772042 
L 477.635606 -262.089277 
L 478.739057 -260.403263 
L 479.842508 -258.714374 
L 480.94596 -257.022978 
L 482.049411 -255.329442 
L 483.152862 -253.634132 
L 484.256313 -251.937407 
L 485.359764 -250.239627 
L 486.463215 -248.541147 
L 487.566667 -246.842318 
L 487.566667 -78.6525 
L 487.566667 -78.6525 
L 486.463215 -78.6525 
L 485.359764 -78.6525 
L 484.256313 -78.6525 
L 483.152862 -78.6525 
L 482.049411 -78.6525 
L 480.94596 -78.6525 
L 479.842508 -78.6525 
L 478.739057 -78.6525 
L 477.635606 -78.6525 
L 476.532155 -78.6525 
L 475.428704 -78.6525 
L 474.325253 -78.6525 
L 473.221801 -78.6525 
L 472.11835 -78.6525 
L 471.014899 -78.6525 
L 469.911448 -78.6525 
L 468.807997 -78.6525 
L 467.704545 -78.6525 
L 466.601094 -78.6525 
L 465.497643 -78.6525 
L 464.394192 -78.6525 
L 463.290741 -78.6525 
L 462.18729 -78.6525 
L 461.083838 -78.6525 
L 459.980387 -78.6525 
L 458.876936 -78.6525 
L 457.773485 -78.6525 
L 456.670034 -78.6525 
L 455.566582 -78.6525 
L 454.463131 -78.6525 
L 453.35968 -78.6525 
L 452.256229 -78.6525 
L 451.152778 -78.6525 
L 450.049327 -78.6525 
L 448.945875 -78.6525 
L 447.842424 -78.6525 
L 446.738973 -78.6525 
L 445.635522 -78.6525 
L 444.532071 -78.6525 
L 443.42862 -78.6525 
L 442.325168 -78.6525 
L 441.221717 -78.6525 
L 440.118266 -78.6525 
L 439.014815 -78.6525 
L 437.911364 -78.6525 
L 436.807912 -78.6525 
L 435.704461 -78.6525 
L 434.60101 -78.6525 
L 433.497559 -78.6525 
L 432.394108 -78.6525 
L 431.290657 -78.6525 
L 430.187205 -78.6525 
L 429.083754 -78.6525 
L 427.980303 -78.6525 
L 426.876852 -78.6525 
L 425.773401 -78.6525 
L 424.669949 -78.6525 
L 423.566498 -78.6525 
L 422.463047 -78.6525 
L 421.359596 -78.6525 
L 420.256145 -78.6525 
L 419.152694 -78.6525 
L 418.049242 -78.6525 
L 416.945791 -78.6525 
L 415.84234 -78.6525 
L 414.738889 -78.6525 
L 413.635438 -78.6525 
L 412.531987 -78.6525 
L 411.428535 -78.6525 
L 410.325084 -78.6525 
L 409.221633 -78.6525 
L 408.118182 -78.6525 
L 407.014731 -78.6525 
L 405.911279 -78.6525 
L 404.807828 -78.6525 
L 403.704377 -78.6525 
L 402.600926 -78.6525 
L 401.497475 -78.6525 
L 400.394024 -78.6525 
L 399.290572 -78.6525 
L 398.187121 -78.6525 
L 397.08367 -78.6525 
L 395.980219 -78.6525 
L 394.876768 -78.6525 
L 393.773316 -78.6525 
L 392.669865 -78.6525 
L 391.566414 -78.6525 
L 390.462963 -78.6525 
L 389.359512 -78.6525 
L 388.256061 -78.6525 
L 387.152609 -78.6525 
L 386.049158 -78.6525 
L 384.945707 -78.6525 
L 383.842256 -78.6525 
L 382.738805 -78.6525 
L 381.635354 -78.6525 
L 380.531902 -78.6525 
L 379.428451 -78.6525 
L 378.325 -78.6525 
z
" style="stroke: #87ceeb; stroke-opacity: 0.6"/>
    </defs>
    <g clip-path="url(#p65c3145dbc)">
     <use xlink:href="#m616f29b80d" x="0" y="432" style="fill: #87ceeb; fill-opacity: 0.6; stroke: #87ceeb; stroke-opacity: 0.6"/>
    </g>
   </g>
   <g id="matplotlib.axis_1">
    <g id="xtick_1">
     <g id="line2d_1">
      <path d="M 50.6 374.2 
L 50.6 40.56 
" clip-path="url(#p65c3145dbc)" style="fill: none; stroke: #b0b0b0; stroke-opacity: 0.3; stroke-width: 0.8; stroke-linecap: square"/>
     </g>
     <g id="line2d_2">
      <defs>
       <path id="m7552e51a57" d="M 0 0 
L 0 3.5 
" style="stroke: #000000; stroke-width: 0.8"/>
      </defs>
      <g>
       <use xlink:href="#m7552e51a57" x="50.6" y="374.2" style="stroke: #000000; stroke-width: 0.8"/>
      </g>
     </g>
     <g id="text_15">
      <!-- −3 -->
      <g transform="translate(43.228906 388.798437) scale(0.1 -0.1)">
       <defs>
        <path id="DejaVuSans-2212" d="M 678 2272 
L 4684 2272 
L 4684 1741 
L 678 1741 
L 678 2272 
z
" transform="scale(0.015625)"/>
       </defs>
       <use xlink:href="#DejaVuSans-2212"/>
       <use xlink:href="#DejaVuSans-33" transform="translate(83.789062 0)"/>
      </g>
     </g>
    </g>
    <g id="xtick_2">
     <g id="line2d_3">
      <path d="M 159.841667 374.2 
L 159.841667 40.56 
" clip-path="url(#p65c3145dbc)" style="fill: none; stroke: #b0b0b0; stroke-opacity: 0.3; stroke-width: 0.8; stroke-linecap: square"/>
     </g>
     <g id="line2d_4">
      <g>
       <use xlink:href="#m7552e51a57" x="159.841667" y="374.2" style="stroke: #000000; stroke-width: 0.8"/>
      </g>
     </g>
     <g id="text_16">
      <!-- −2 -->
      <g transform="translate(152.470573 388.798437) scale(0.1 -0.1)">
       <use xlink:href="#DejaVuSans-2212"/>
       <use xlink:href="#DejaVuSans-32" transform="translate(83.789062 0)"/>
      </g>
     </g>
    </g>
    <g id="xtick_3">
     <g id="line2d_5">
      <path d="M 269.083333 374.2 
L 269.083333 40.56 
" clip-path="url(#p65c3145dbc)" style="fill: none; stroke: #b0b0b0; stroke-opacity: 0.3; stroke-width: 0.8; stroke-linecap: square"/>
     </g>
     <g id="line2d_6">
      <g>
       <use xlink:href="#m7552e51a57" x="269.083333" y="374.2" style="stroke: #000000; stroke-width: 0.8"/>
      </g>
     </g>
     <g id="text_17">
      <!-- −1 -->
      <g transform="translate(261.71224 388.798437) scale(0.1 -0.1)">
       <use xlink:href="#DejaVuSans-2212"/>
       <use xlink:href="#DejaVuSans-31" transform="translate(83.789062 0)"/>
      </g>
     </g>
    </g>
    <g id="xtick_4">
     <g id="line2d_7">
      <path d="M 378.325 374.2 
L 378.325 40.56 
" clip-path="url(#p65c3145dbc)" style="fill: none; stroke: #b0b0b0; stroke-opacity: 0.3; stroke-width: 0.8; stroke-linecap: square"/>
     </g>
     <g id="line2d_8">
      <g>
       <use xlink:href="#m7552e51a57" x="378.325" y="374.2" style="stroke: #000000; stroke-width: 0.8"/>
      </g>
     </g>
     <g id="text_18">
      <!-- 0 -->
      <g transform="translate(375.14375 388.798437) scale(0.1 -0.1)">
       <use xlink:href="#DejaVuSans-30"/>
      </g>
     </g>
    </g>
    <g id="xtick_5">
     <g id="line2d_9">
      <path d="M 487.566667 374.2 
L 487.566667 40.56 
" clip-path="url(#p65c3145dbc)" style="fill: none; stroke: #b0b0b0; stroke-opacity: 0.3; stroke-width: 0.8; stroke-linecap: square"/>
     </g>
     <g id="line2d_10">
      <g>
       <use xlink:href="#m7552e51a57" x="487.566667" y="374.2" style="stroke: #000000; stroke-width: 0.8"/>
      </g>
     </g>
     <g id="text_19">
      <!-- 1 -->
      <g transform="translate(484.385417 388.798437) scale(0.1 -0.1)">
       <use xlink:href="#DejaVuSans-31"/>
      </g>
     </g>
    </g>
    <g id="xtick_6">
     <g id="line2d_11">
      <path d="M 596.808333 374.2 
L 596.808333 40.56 
" clip-path="url(#p65c3145dbc)" style="fill: none; stroke: #b0b0b0; stroke-opacity: 0.3; stroke-width: 0.8; stroke-linecap: square"/>
     </g>
     <g id="line2d_12">
      <g>
       <use xlink:href="#m7552e51a57" x="596.808333" y="374.2" style="stroke: #000000; stroke-width: 0.8"/>
      </g>
     </g>
     <g id="text_20">
      <!-- 2 -->
      <g transform="translate(593.627083 388.798437) scale(0.1 -0.1)">
       <use xlink:href="#DejaVuSans-32"/>
      </g>
     </g>
    </g>
    <g id="xtick_7">
     <g id="line2d_13">
      <path d="M 706.05 374.2 
L 706.05 40.56 
" clip-path="url(#p65c3145dbc)" style="fill: none; stroke: #b0b0b0; stroke-opacity: 0.3; stroke-width: 0.8; stroke-linecap: square"/>
     </g>
     <g id="line2d_14">
      <g>
       <use xlink:href="#m7552e51a57" x="706.05" y="374.2" style="stroke: #000000; stroke-width: 0.8"/>
      </g>
     </g>
     <g id="text_21">
      <!-- 3 -->
      <g transform="translate(702.86875 388.798437) scale(0.1 -0.1)">
       <use xlink:href="#DejaVuSans-33"/>
      </g>
     </g>
    </g>
    <g id="text_22">
     <!-- x/σ (Standard Deviations from Mean) -->
     <g transform="translate(267.210625 403.99625) scale(0.12 -0.12)">
      <defs>
       <path id="DejaVuSans-20" transform="scale(0.015625)"/>
       <path id="DejaVuSans-28" d="M 1984 4856 
Q 1566 4138 1362 3434 
Q 1159 2731 1159 2009 
Q 1159 1288 1364 580 
Q 1569 -128 1984 -844 
L 1484 -844 
Q 1016 -109 783 600 
Q 550 1309 550 2009 
Q 550 2706 781 3412 
Q 1013 4119 1484 4856 
L 1984 4856 
z
" transform="scale(0.015625)"/>
       <path id="DejaVuSans-53" d="M 3425 4513 
L 3425 3897 
Q 3066 4069 2747 4153 
Q 2428 4238 2131 4238 
Q 1616 4238 1336 4038 
Q 1056 3838 1056 3469 
Q 1056 3159 1242 3001 
Q 1428 2844 1947 2747 
L 2328 2669 
Q 3034 2534 3370 2195 
Q 3706 1856 3706 1288 
Q 3706 609 3251 259 
Q 2797 -91 1919 -91 
Q 1588 -91 1214 -16 
Q 841 59 441 206 
L 441 856 
Q 825 641 1194 531 
Q 1563 422 1919 422 
Q 2459 422 2753 634 
Q 3047 847 3047 1241 
Q 3047 1584 2836 1778 
Q 2625 1972 2144 2069 
L 1759 2144 
Q 1053 2284 737 2584 
Q 422 2884 422 3419 
Q 422 4038 858 4394 
Q 1294 4750 2059 4750 
Q 2388 4750 2728 4690 
Q 3069 4631 3425 4513 
z
" transform="scale(0.015625)"/>
       <path id="DejaVuSans-6e" d="M 3513 2113 
L 3513 0 
L 2938 0 
L 2938 2094 
Q 2938 2591 2744 2837 
Q 2550 3084 2163 3084 
Q 1697 3084 1428 2787 
Q 1159 2491 1159 1978 
L 1159 0 
L 581 0 
L 581 3500 
L 1159 3500 
L 1159 2956 
Q 1366 3272 1645 3428 
Q 1925 3584 2291 3584 
Q 2894 3584 3203 3211 
Q 3513 2838 3513 2113 
z
" transform="scale(0.015625)"/>
       <path id="DejaVuSans-64" d="M 2906 2969 
L 2906 4863 
L 3481 4863 
L 3481 0 
L 2906 0 
L 2906 525 
Q 2725 213 2448 61 
Q 2172 -91 1784 -91 
Q 1150 -91 751 415 
Q 353 922 353 1747 
Q 353 2572 751 3078 
Q 1150 3584 1784 3584 
Q 2172 3584 2448 3432 
Q 2725 3281 2906 2969 
z
M 947 1747 
Q 947 1113 1208 752 
Q 1469 391 1925 391 
Q 2381 391 2643 752 
Q 2906 1113 2906 1747 
Q 2906 2381 2643 2742 
Q 2381 3103 1925 3103 
Q 1469 3103 1208 2742 
Q 947 2381 947 1747 
z
" transform="scale(0.015625)"/>
       <path id="DejaVuSans-44" d="M 1259 4147 
L 1259 519 
L 2022 519 
Q 2988 519 3436 956 
Q 3884 1394 3884 2338 
Q 3884 3275 3436 3711 
Q 2988 4147 2022 4147 
L 1259 4147 
z
M 628 4666 
L 1925 4666 
Q 3281 4666 3915 4102 
Q 4550 3538 4550 2338 
Q 4550 1131 3912 565 
Q 3275 0 1925 0 
L 628 0 
L 628 4666 
z
" transform="scale(0.015625)"/>
       <path id="DejaVuSans-65" d="M 3597 1894 
L 3597 1613 
L 953 1613 
Q 991 1019 1311 708 
Q 1631 397 2203 397 
Q 2534 397 2845 478 
Q 3156 559 3463 722 
L 3463 178 
Q 3153 47 2828 -22 
Q 2503 -91 2169 -91 
Q 1331 -91 842 396 
Q 353 884 353 1716 
Q 353 2575 817 3079 
Q 1281 3584 2069 3584 
Q 2775 3584 3186 3129 
Q 3597 2675 3597 1894 
z
M 3022 2063 
Q 3016 2534 2758 2815 
Q 2500 3097 2075 3097 
Q 1594 3097 1305 2825 
Q 1016 2553 972 2059 
L 3022 2063 
z
" transform="scale(0.015625)"/>
       <path id="DejaVuSans-76" d="M 191 3500 
L 800 3500 
L 1894 563 
L 2988 3500 
L 3597 3500 
L 2284 0 
L 1503 0 
L 191 3500 
z
" transform="scale(0.015625)"/>
       <path id="DejaVuSans-73" d="M 2834 3397 
L 2834 2853 
Q 2591 2978 2328 3040 
Q 2066 3103 1784 3103 
Q 1356 3103 1142 2972 
Q 928 2841 928 2578 
Q 928 2378 1081 2264 
Q 1234 2150 1697 2047 
L 1894 2003 
Q 2506 1872 2764 1633 
Q 3022 1394 3022 966 
Q 3022 478 2636 193 
Q 2250 -91 1575 -91 
Q 1294 -91 989 -36 
Q 684 19 347 128 
L 347 722 
Q 666 556 975 473 
Q 1284 391 1588 391 
Q 1994 391 2212 530 
Q 2431 669 2431 922 
Q 2431 1156 2273 1281 
Q 2116 1406 1581 1522 
L 1381 1569 
Q 847 1681 609 1914 
Q 372 2147 372 2553 
Q 372 3047 722 3315 
Q 1072 3584 1716 3584 
Q 2034 3584 2315 3537 
Q 2597 3491 2834 3397 
z
" transform="scale(0.015625)"/>
       <path id="DejaVuSans-66" d="M 2375 4863 
L 2375 4384 
L 1825 4384 
Q 1516 4384 1395 4259 
Q 1275 4134 1275 3809 
L 1275 3500 
L 2222 3500 
L 2222 3053 
L 1275 3053 
L 1275 0 
L 697 0 
L 697 3053 
L 147 3053 
L 147 3500 
L 697 3500 
L 697 3744 
Q 697 4328 969 4595 
Q 1241 4863 1831 4863 
L 2375 4863 
z
" transform="scale(0.015625)"/>
       <path id="DejaVuSans-6d" d="M 3328 2828 
Q 3544 3216 3844 3400 
Q 4144 3584 4550 3584 
Q 5097 3584 5394 3201 
Q 5691 2819 5691 2113 
L 5691 0 
L 5113 0 
L 5113 2094 
Q 5113 2597 4934 2840 
Q 4756 3084 4391 3084 
Q 3944 3084 3684 2787 
Q 3425 2491 3425 1978 
L 3425 0 
L 2847 0 
L 2847 2094 
Q 2847 2600 2669 2842 
Q 2491 3084 2119 3084 
Q 1678 3084 1418 2786 
Q 1159 2488 1159 1978 
L 1159 0 
L 581 0 
L 581 3500 
L 1159 3500 
L 1159 2956 
Q 1356 3278 1631 3431 
Q 1906 3584 2284 3584 
Q 2666 3584 2933 3390 
Q 3200 3197 3328 2828 
z
" transform="scale(0.015625)"/>
       <path id="DejaVuSans-4d" d="M 628 4666 
L 1569 4666 
L 2759 1491 
L 3956 4666 
L 4897 4666 
L 4897 0 
L 4281 0 
L 4281 4097 
L 3078 897 
L 2444 897 
L 1241 4097 
L 1241 0 
L 628 0 
L 628 4666 
z
" transform="scale(0.015625)"/>
       <path id="DejaVuSans-29" d="M 513 4856 
L 1013 4856 
Q 1481 4119 1714 3412 
Q 1947 2706 1947 2009 
Q 1947 1309 1714 600 
Q 1481 -109 1013 -844 
L 513 -844 
Q 928 -128 1133 580 
Q 1338 1288 1338 2009 
Q 1338 2731 1133 3434 
Q 928 4138 513 4856 
z
" transform="scale(0.015625)"/>
      </defs>
      <use xlink:href="#DejaVuSans-78"/>
      <use xlink:href="#DejaVuSans-2f" transform="translate(59.179688 0)"/>
      <use xlink:href="#DejaVuSans-3c3" transform="translate(92.871094 0)"/>
      <use xlink:href="#DejaVuSans-20" transform="translate(156.25 0)"/>
      <use xlink:href="#DejaVuSans-28" transform="translate(188.037109 0)"/>
      <use xlink:href="#DejaVuSans-53" transform="translate(227.050781 0)"/>
      <use xlink:href="#DejaVuSans-74" transform="translate(290.527344 0)"/>
      <use xlink:href="#DejaVuSans-61" transform="translate(329.736328 0)"/>
      <use xlink:href="#DejaVuSans-6e" transform="translate(391.015625 0)"/>
      <use xlink:href="#DejaVuSans-64" transform="translate(454.394531 0)"/>
      <use xlink:href="#DejaVuSans-61" transform="translate(517.871094 0)"/>
      <use xlink:href="#DejaVuSans-72" transform="translate(579.150391 0)"/>
      <use xlink:href="#DejaVuSans-64" transform="translate(618.513672 0)"/>
      <use xlink:href="#DejaVuSans-20" transform="translate(681.990234 0)"/>
      <use xlink:href="#DejaVuSans-44" transform="translate(713.777344 0)"/>
      <use xlink:href="#DejaVuSans-65" transform="translate(790.779297 0)"/>
      <use xlink:href="#DejaVuSans-76" transform="translate(852.302734 0)"/>
      <use xlink:href="#DejaVuSans-69" transform="translate(911.482422 0)"/>
      <use xlink:href="#DejaVuSans-61" transform="translate(939.265625 0)"/>
      <use xlink:href="#DejaVuSans-74" transform="translate(1000.544922 0)"/>
      <use xlink:href="#DejaVuSans-69" transform="translate(1039.753906 0)"/>
      <use xlink:href="#DejaVuSans-6f" transform="translate(1067.537109 0)"/>
      <use xlink:href="#DejaVuSans-6e" transform="translate(1128.71875 0)"/>
      <use xlink:href="#DejaVuSans-73" transform="translate(1192.097656 0)"/>
      <use xlink:href="#DejaVuSans-20" transform="translate(1244.197266 0)"/>
      <use xlink:href="#DejaVuSans-66" transform="translate(1275.984375 0)"/>
      <use xlink:href="#DejaVuSans-72" transform="translate(1311.189453 0)"/>
      <use xlink:href="#DejaVuSans-6f" transform="translate(1350.052734 0)"/>
      <use xlink:href="#DejaVuSans-6d" transform="translate(1411.234375 0)"/>
      <use xlink:href="#DejaVuSans-20" transform="translate(1508.646484 0)"/>
      <use xlink:href="#DejaVuSans-4d" transform="translate(1540.433594 0)"/>
      <use xlink:href="#DejaVuSans-65" transform="translate(1626.712891 0)"/>
      <use xlink:href="#DejaVuSans-61" transform="translate(1688.236328 0)"/>
      <use xlink:href="#DejaVuSans-6e" transform="translate(1749.515625 0)"/>
      <use xlink:href="#DejaVuSans-29" transform="translate(1812.894531 0)"/>
     </g>
    </g>
   </g>
   <g id="matplotlib.axis_2">
    <g id="ytick_1">
     <g id="line2d_15">
      <path d="M 50.6 353.3475 
L 706.05 353.3475 
" clip-path="url(#p65c3145dbc)" style="fill: none; stroke: #b0b0b0; stroke-opacity: 0.3; stroke-width: 0.8; stroke-linecap: square"/>
     </g>
     <g id="line2d_16">
      <defs>
       <path id="m8b1d6891f8" d="M 0 0 
L -3.5 0 
" style="stroke: #000000; stroke-width: 0.8"/>
      </defs>
      <g>
       <use xlink:href="#m8b1d6891f8" x="50.6" y="353.3475" style="stroke: #000000; stroke-width: 0.8"/>
      </g>
     </g>
     <g id="text_23">
      <!-- 0.0 -->
      <g transform="translate(27.696875 357.146719) scale(0.1 -0.1)">
       <use xlink:href="#DejaVuSans-30"/>
       <use xlink:href="#DejaVuSans-2e" transform="translate(63.623047 0)"/>
       <use xlink:href="#DejaVuSans-30" transform="translate(95.410156 0)"/>
      </g>
     </g>
    </g>
    <g id="ytick_2">
     <g id="line2d_17">
      <path d="M 50.6 283.839167 
L 706.05 283.839167 
" clip-path="url(#p65c3145dbc)" style="fill: none; stroke: #b0b0b0; stroke-opacity: 0.3; stroke-width: 0.8; stroke-linecap: square"/>
     </g>
     <g id="line2d_18">
      <g>
       <use xlink:href="#m8b1d6891f8" x="50.6" y="283.839167" style="stroke: #000000; stroke-width: 0.8"/>
      </g>
     </g>
     <g id="text_24">
      <!-- 0.1 -->
      <g transform="translate(27.696875 287.638385) scale(0.1 -0.1)">
       <use xlink:href="#DejaVuSans-30"/>
       <use xlink:href="#DejaVuSans-2e" transform="translate(63.623047 0)"/>
       <use xlink:href="#DejaVuSans-31" transform="translate(95.410156 0)"/>
      </g>
     </g>
    </g>
    <g id="ytick_3">
     <g id="line2d_19">
      <path d="M 50.6 214.330833 
L 706.05 214.330833 
" clip-path="url(#p65c3145dbc)" style="fill: none; stroke: #b0b0b0; stroke-opacity: 0.3; stroke-width: 0.8; stroke-linecap: square"/>
     </g>
     <g id="line2d_20">
      <g>
       <use xlink:href="#m8b1d6891f8" x="50.6" y="214.330833" style="stroke: #000000; stroke-width: 0.8"/>
      </g>
     </g>
     <g id="text_25">
      <!-- 0.2 -->
      <g transform="translate(27.696875 218.130052) scale(0.1 -0.1)">
       <use xlink:href="#DejaVuSans-30"/>
       <use xlink:href="#DejaVuSans-2e" transform="translate(63.623047 0)"/>
       <use xlink:href="#DejaVuSans-32" transform="translate(95.410156 0)"/>
      </g>
     </g>
    </g>
    <g id="ytick_4">
     <g id="line2d_21">
      <path d="M 50.6 144.8225 
L 706.05 144.8225 
" clip-path="url(#p65c3145dbc)" style="fill: none; stroke: #b0b0b0; stroke-opacity: 0.3; stroke-width: 0.8; stroke-linecap: square"/>
     </g>
     <g id="line2d_22">
      <g>
       <use xlink:href="#m8b1d6891f8" x="50.6" y="144.8225" style="stroke: #000000; stroke-width: 0.8"/>
      </g>
     </g>
     <g id="text_26">
      <!-- 0.3 -->
      <g transform="translate(27.696875 148.621719) scale(0.1 -0.1)">
       <use xlink:href="#DejaVuSans-30"/>
       <use xlink:href="#DejaVuSans-2e" transform="translate(63.623047 0)"/>
       <use xlink:href="#DejaVuSans-33" transform="translate(95.410156 0)"/>
      </g>
     </g>
    </g>
    <g id="ytick_5">
     <g id="line2d_23">
      <path d="M 50.6 75.314167 
L 706.05 75.314167 
" clip-path="url(#p65c3145dbc)" style="fill: none; stroke: #b0b0b0; stroke-opacity: 0.3; stroke-width: 0.8; stroke-linecap: square"/>
     </g>
     <g id="line2d_24">
      <g>
       <use xlink:href="#m8b1d6891f8" x="50.6" y="75.314167" style="stroke: #000000; stroke-width: 0.8"/>
      </g>
     </g>
     <g id="text_27">
      <!-- 0.4 -->
      <g transform="translate(27.696875 79.113385) scale(0.1 -0.1)">
       <use xlink:href="#DejaVuSans-30"/>
       <use xlink:href="#DejaVuSans-2e" transform="translate(63.623047 0)"/>
       <use xlink:href="#DejaVuSans-34" transform="translate(95.410156 0)"/>
      </g>
     </g>
    </g>
    <g id="text_28">
     <!-- Probability Density -->
     <g transform="translate(21.20125 263.811875) rotate(-90) scale(0.12 -0.12)">
      <use xlink:href="#DejaVuSans-50"/>
      <use xlink:href="#DejaVuSans-72" transform="translate(58.552734 0)"/>
      <use xlink:href="#DejaVuSans-6f" transform="translate(97.416016 0)"/>
      <use xlink:href="#DejaVuSans-62" transform="translate(158.597656 0)"/>
      <use xlink:href="#DejaVuSans-61" transform="translate(222.074219 0)"/>
      <use xlink:href="#DejaVuSans-62" transform="translate(283.353516 0)"/>
      <use xlink:href="#DejaVuSans-69" transform="translate(346.830078 0)"/>
      <use xlink:href="#DejaVuSans-6c" transform="translate(374.613281 0)"/>
      <use xlink:href="#DejaVuSans-69" transform="translate(402.396484 0)"/>
      <use xlink:href="#DejaVuSans-74" transform="translate(430.179688 0)"/>
      <use xlink:href="#DejaVuSans-79" transform="translate(469.388672 0)"/>
      <use xlink:href="#DejaVuSans-20" transform="translate(528.568359 0)"/>
      <use xlink:href="#DejaVuSans-44" transform="translate(560.355469 0)"/>
      <use xlink:href="#DejaVuSans-65" transform="translate(637.357422 0)"/>
      <use xlink:href="#DejaVuSans-6e" transform="translate(698.880859 0)"/>
      <use xlink:href="#DejaVuSans-73" transform="translate(762.259766 0)"/>
      <use xlink:href="#DejaVuSans-69" transform="translate(814.359375 0)"/>
      <use xlink:href="#DejaVuSans-74" transform="translate(842.142578 0)"/>
      <use xlink:href="#DejaVuSans-79" transform="translate(881.351562 0)"/>
     </g>
    </g>
   </g>
   <g id="line2d_25">
    <path d="M -1 352.679502 
L 15.717025 352.224332 
L 29.713956 351.64305 
L 41.96127 350.925172 
L 52.458967 350.106119 
L 62.081857 349.148338 
L 70.829938 348.069739 
L 79.57802 346.756493 
L 87.451293 345.341374 
L 94.449758 343.87175 
L 101.448223 342.178294 
L 108.446688 340.236114 
L 114.570345 338.312291 
L 120.694002 336.160279 
L 126.817659 333.761887 
L 132.941316 331.098833 
L 138.190165 328.591805 
L 143.439014 325.865799 
L 148.687863 322.909964 
L 153.936712 319.713947 
L 159.185561 316.268041 
L 164.434409 312.56335 
L 169.683258 308.591958 
L 174.932107 304.347102 
L 180.180956 299.823351 
L 185.429805 295.016783 
L 190.678654 289.925162 
L 195.927503 284.548115 
L 201.176351 278.887292 
L 207.300008 271.929576 
L 213.423665 264.601023 
L 219.547322 256.916306 
L 225.670979 248.894891 
L 232.669444 239.346831 
L 239.66791 229.435583 
L 247.541183 217.917806 
L 257.164072 203.438012 
L 273.785427 177.922798 
L 286.907549 157.967718 
L 294.780822 146.359538 
L 301.779288 136.41148 
L 307.902945 128.07521 
L 313.151793 121.256518 
L 318.400642 114.782823 
L 323.649491 108.694022 
L 328.023532 103.941699 
L 332.397573 99.504353 
L 336.771613 95.40193 
L 341.145654 91.653093 
L 344.644887 88.92024 
L 348.144119 86.432857 
L 351.643352 84.198378 
L 355.142584 82.223523 
L 358.641817 80.514261 
L 362.141049 79.075786 
L 365.640282 77.912482 
L 369.139515 77.027907 
L 372.638747 76.424774 
L 376.13798 76.104935 
L 379.637212 76.069375 
L 383.136445 76.318202 
L 386.635677 76.850651 
L 390.13491 77.665086 
L 393.634142 78.759009 
L 397.133375 80.129071 
L 400.632608 81.771091 
L 404.13184 83.680078 
L 407.631073 85.850252 
L 411.130305 88.275079 
L 414.629538 90.9473 
L 418.12877 93.858967 
L 422.502811 97.822118 
L 426.876852 102.12782 
L 431.250893 106.756621 
L 435.624933 111.687877 
L 440.873782 117.974019 
L 446.122631 124.625285 
L 452.246288 132.792401 
L 458.369945 141.335139 
L 465.36841 151.472107 
L 474.116491 164.557237 
L 487.238614 184.652609 
L 503.859968 210.064553 
L 513.482858 224.360036 
L 521.356131 235.670007 
L 528.354596 245.359944 
L 535.353061 254.657856 
L 541.476718 262.440973 
L 547.600375 269.872991 
L 553.724032 276.937886 
L 559.847689 283.624275 
L 565.096538 289.04879 
L 570.345387 294.188009 
L 575.594236 299.041979 
L 580.843085 303.612637 
L 586.091934 307.903637 
L 591.340782 311.92017 
L 596.589631 315.66879 
L 601.83848 319.157234 
L 607.087329 322.394245 
L 612.336178 325.389406 
L 617.585027 328.152976 
L 622.833876 330.69573 
L 628.957533 333.39808 
L 635.08119 335.833163 
L 641.204847 338.019253 
L 647.328504 339.97457 
L 653.45216 341.717064 
L 660.450626 343.470322 
L 667.449091 344.993638 
L 675.322364 346.462277 
L 683.195637 347.702125 
L 691.943719 348.847203 
L 701.566608 349.86631 
L 712.064306 350.739946 
L 721 351.32321 
L 721 351.32321 
" clip-path="url(#p65c3145dbc)" style="fill: none; stroke: #000000; stroke-width: 2; stroke-linecap: square"/>
   </g>
   <g id="line2d_26">
    <path d="M 487.566667 374.2 
L 487.566667 40.56 
" clip-path="url(#p65c3145dbc)" style="fill: none; stroke-dasharray: 5.55,2.4; stroke-dashoffset: 0; stroke: #0000ff; stroke-opacity: 0.7; stroke-width: 1.5"/>
   </g>
   <g id="line2d_27">
    <path d="M 378.325 374.2 
L 378.325 40.56 
" clip-path="url(#p65c3145dbc)" style="fill: none; stroke-dasharray: 5.55,2.4; stroke-dashoffset: 0; stroke: #0000ff; stroke-opacity: 0.7; stroke-width: 1.5"/>
   </g>
   <g id="patch_17">
    <path d="M 50.6 374.2 
L 50.6 40.56 
" style="fill: none; stroke: #000000; stroke-width: 0.8; stroke-linejoin: miter; stroke-linecap: square"/>
   </g>
   <g id="patch_18">
    <path d="M 706.05 374.2 
L 706.05 40.56 
" style="fill: none; stroke: #000000; stroke-width: 0.8; stroke-linejoin: miter; stroke-linecap: square"/>
   </g>
   <g id="patch_19">
    <path d="M 50.6 374.2 
L 706.05 374.2 
" style="fill: none; stroke: #000000; stroke-width: 0.8; stroke-linejoin: miter; stroke-linecap: square"/>
   </g>
   <g id="patch_20">
    <path d="M 50.6 40.56 
L 706.05 40.56 
" style="fill: none; stroke: #000000; stroke-width: 0.8; stroke-linejoin: miter; stroke-linecap: square"/>
   </g>
   <g id="text_29">
    <g id="patch_21">
     <path d="M 389.162708 258.851875 
L 476.728958 258.851875 
L 476.728958 239.318125 
L 389.162708 239.318125 
z
" style="fill: #ffffff; opacity: 0.8; stroke: #000000; stroke-linejoin: miter"/>
    </g>
    <!-- Area = 0.341 -->
    <g transform="translate(393.122708 252.39625) scale(0.12 -0.12)">
     <defs>
      <path id="DejaVuSans-41" d="M 2188 4044 
L 1331 1722 
L 3047 1722 
L 2188 4044 
z
M 1831 4666 
L 2547 4666 
L 4325 0 
L 3669 0 
L 3244 1197 
L 1141 1197 
L 716 0 
L 50 0 
L 1831 4666 
z
" transform="scale(0.015625)"/>
      <path id="DejaVuSans-3d" d="M 678 2906 
L 4684 2906 
L 4684 2381 
L 678 2381 
L 678 2906 
z
M 678 1631 
L 4684 1631 
L 4684 1100 
L 678 1100 
L 678 1631 
z
" transform="scale(0.015625)"/>
     </defs>
     <use xlink:href="#DejaVuSans-41"/>
     <use xlink:href="#DejaVuSans-72" transform="translate(68.408203 0)"/>
     <use xlink:href="#DejaVuSans-65" transform="translate(107.271484 0)"/>
     <use xlink:href="#DejaVuSans-61" transform="translate(168.794922 0)"/>
     <use xlink:href="#DejaVuSans-20" transform="translate(230.074219 0)"/>
     <use xlink:href="#DejaVuSans-3d" transform="translate(261.861328 0)"/>
     <use xlink:href="#DejaVuSans-20" transform="translate(345.650391 0)"/>
     <use xlink:href="#DejaVuSans-30" transform="translate(377.4375 0)"/>
     <use xlink:href="#DejaVuSans-2e" transform="translate(441.060547 0)"/>
     <use xlink:href="#DejaVuSans-33" transform="translate(472.847656 0)"/>
     <use xlink:href="#DejaVuSans-34" transform="translate(536.470703 0)"/>
     <use xlink:href="#DejaVuSans-31" transform="translate(600.09375 0)"/>
    </g>
   </g>
   <g id="patch_22">
    <path d="M 378.325 355.644885 
Q 378.325 355.494568 378.325 356.462285 
" style="fill: none; stroke: #000000; stroke-linecap: round"/>
    <path d="M 376.325 360.462285 
L 378.325 356.462285 
L 380.325 360.462285 
" style="fill: none; stroke: #000000; stroke-linecap: round"/>
   </g>
   <g id="text_30">
    <!-- x/σ = 0 -->
    <g transform="translate(359.963281 367.249167) scale(0.1 -0.1)">
     <use xlink:href="#DejaVuSans-78"/>
     <use xlink:href="#DejaVuSans-2f" transform="translate(59.179688 0)"/>
     <use xlink:href="#DejaVuSans-3c3" transform="translate(92.871094 0)"/>
     <use xlink:href="#DejaVuSans-20" transform="translate(156.25 0)"/>
     <use xlink:href="#DejaVuSans-3d" transform="translate(188.037109 0)"/>
     <use xlink:href="#DejaVuSans-20" transform="translate(271.826172 0)"/>
     <use xlink:href="#DejaVuSans-30" transform="translate(303.613281 0)"/>
    </g>
   </g>
   <g id="patch_23">
    <path d="M 487.566667 355.644885 
Q 487.566667 355.494568 487.566667 356.462285 
" style="fill: none; stroke: #000000; stroke-linecap: round"/>
    <path d="M 485.566667 360.462285 
L 487.566667 356.462285 
L 489.566667 360.462285 
" style="fill: none; stroke: #000000; stroke-linecap: round"/>
   </g>
   <g id="text_31">
    <!-- x/σ = 1.0 -->
    <g transform="translate(464.434635 367.249167) scale(0.1 -0.1)">
     <use xlink:href="#DejaVuSans-78"/>
     <use xlink:href="#DejaVuSans-2f" transform="translate(59.179688 0)"/>
     <use xlink:href="#DejaVuSans-3c3" transform="translate(92.871094 0)"/>
     <use xlink:href="#DejaVuSans-20" transform="translate(156.25 0)"/>
     <use xlink:href="#DejaVuSans-3d" transform="translate(188.037109 0)"/>
     <use xlink:href="#DejaVuSans-20" transform="translate(271.826172 0)"/>
     <use xlink:href="#DejaVuSans-31" transform="translate(303.613281 0)"/>
     <use xlink:href="#DejaVuSans-2e" transform="translate(367.236328 0)"/>
     <use xlink:href="#DejaVuSans-30" transform="translate(399.023438 0)"/>
    </g>
   </g>
   <g id="text_32">
    <g id="patch_24">
     <path d="M 68.448333 156.7225 
L 257.304583 156.7225 
L 257.304583 110.886875 
L 68.448333 110.886875 
z
" style="fill: #ffffe0; opacity: 0.9; stroke: #000000; stroke-linejoin: miter"/>
    </g>
    <!-- The probability that a measurement -->
    <g transform="translate(72.448333 116.665) scale(0.1 -0.1)">
     <defs>
      <path id="DejaVuSans-54" d="M -19 4666 
L 3928 4666 
L 3928 4134 
L 2272 4134 
L 2272 0 
L 1638 0 
L 1638 4134 
L -19 4134 
L -19 4666 
z
" transform="scale(0.015625)"/>
      <path id="DejaVuSans-68" d="M 3513 2113 
L 3513 0 
L 2938 0 
L 2938 2094 
Q 2938 2591 2744 2837 
Q 2550 3084 2163 3084 
Q 1697 3084 1428 2787 
Q 1159 2491 1159 1978 
L 1159 0 
L 581 0 
L 581 4863 
L 1159 4863 
L 1159 2956 
Q 1366 3272 1645 3428 
Q 1925 3584 2291 3584 
Q 2894 3584 3203 3211 
Q 3513 2838 3513 2113 
z
" transform="scale(0.015625)"/>
      <path id="DejaVuSans-70" d="M 1159 525 
L 1159 -1331 
L 581 -1331 
L 581 3500 
L 1159 3500 
L 1159 2969 
Q 1341 3281 1617 3432 
Q 1894 3584 2278 3584 
Q 2916 3584 3314 3078 
Q 3713 2572 3713 1747 
Q 3713 922 3314 415 
Q 2916 -91 2278 -91 
Q 1894 -91 1617 61 
Q 1341 213 1159 525 
z
M 3116 1747 
Q 3116 2381 2855 2742 
Q 2594 3103 2138 3103 
Q 1681 3103 1420 2742 
Q 1159 2381 1159 1747 
Q 1159 1113 1420 752 
Q 1681 391 2138 391 
Q 2594 391 2855 752 
Q 3116 1113 3116 1747 
z
" transform="scale(0.015625)"/>
      <path id="DejaVuSans-75" d="M 544 1381 
L 544 3500 
L 1119 3500 
L 1119 1403 
Q 1119 906 1312 657 
Q 1506 409 1894 409 
Q 2359 409 2629 706 
Q 2900 1003 2900 1516 
L 2900 3500 
L 3475 3500 
L 3475 0 
L 2900 0 
L 2900 538 
Q 2691 219 2414 64 
Q 2138 -91 1772 -91 
Q 1169 -91 856 284 
Q 544 659 544 1381 
z
M 1991 3584 
L 1991 3584 
z
" transform="scale(0.015625)"/>
     </defs>
     <use xlink:href="#DejaVuSans-54"/>
     <use xlink:href="#DejaVuSans-68" transform="translate(61.083984 0)"/>
     <use xlink:href="#DejaVuSans-65" transform="translate(124.462891 0)"/>
     <use xlink:href="#DejaVuSans-20" transform="translate(185.986328 0)"/>
     <use xlink:href="#DejaVuSans-70" transform="translate(217.773438 0)"/>
     <use xlink:href="#DejaVuSans-72" transform="translate(281.25 0)"/>
     <use xlink:href="#DejaVuSans-6f" transform="translate(320.113281 0)"/>
     <use xlink:href="#DejaVuSans-62" transform="translate(381.294922 0)"/>
     <use xlink:href="#DejaVuSans-61" transform="translate(444.771484 0)"/>
     <use xlink:href="#DejaVuSans-62" transform="translate(506.050781 0)"/>
     <use xlink:href="#DejaVuSans-69" transform="translate(569.527344 0)"/>
     <use xlink:href="#DejaVuSans-6c" transform="translate(597.310547 0)"/>
     <use xlink:href="#DejaVuSans-69" transform="translate(625.09375 0)"/>
     <use xlink:href="#DejaVuSans-74" transform="translate(652.876953 0)"/>
     <use xlink:href="#DejaVuSans-79" transform="translate(692.085938 0)"/>
     <use xlink:href="#DejaVuSans-20" transform="translate(751.265625 0)"/>
     <use xlink:href="#DejaVuSans-74" transform="translate(783.052734 0)"/>
     <use xlink:href="#DejaVuSans-68" transform="translate(822.261719 0)"/>
     <use xlink:href="#DejaVuSans-61" transform="translate(885.640625 0)"/>
     <use xlink:href="#DejaVuSans-74" transform="translate(946.919922 0)"/>
     <use xlink:href="#DejaVuSans-20" transform="translate(986.128906 0)"/>
     <use xlink:href="#DejaVuSans-61" transform="translate(1017.916016 0)"/>
     <use xlink:href="#DejaVuSans-20" transform="translate(1079.195312 0)"/>
     <use xlink:href="#DejaVuSans-6d" transform="translate(1110.982422 0)"/>
     <use xlink:href="#DejaVuSans-65" transform="translate(1208.394531 0)"/>
     <use xlink:href="#DejaVuSans-61" transform="translate(1269.917969 0)"/>
     <use xlink:href="#DejaVuSans-73" transform="translate(1331.197266 0)"/>
     <use xlink:href="#DejaVuSans-75" transform="translate(1383.296875 0)"/>
     <use xlink:href="#DejaVuSans-72" transform="translate(1446.675781 0)"/>
     <use xlink:href="#DejaVuSans-65" transform="translate(1485.539062 0)"/>
     <use xlink:href="#DejaVuSans-6d" transform="translate(1547.0625 0)"/>
     <use xlink:href="#DejaVuSans-65" transform="translate(1644.474609 0)"/>
     <use xlink:href="#DejaVuSans-6e" transform="translate(1705.998047 0)"/>
     <use xlink:href="#DejaVuSans-74" transform="translate(1769.376953 0)"/>
    </g>
    <!-- falls between 0 and x is given by: -->
    <g transform="translate(72.448333 127.862813) scale(0.1 -0.1)">
     <defs>
      <path id="DejaVuSans-77" d="M 269 3500 
L 844 3500 
L 1563 769 
L 2278 3500 
L 2956 3500 
L 3675 769 
L 4391 3500 
L 4966 3500 
L 4050 0 
L 3372 0 
L 2619 2869 
L 1863 0 
L 1184 0 
L 269 3500 
z
" transform="scale(0.015625)"/>
      <path id="DejaVuSans-67" d="M 2906 1791 
Q 2906 2416 2648 2759 
Q 2391 3103 1925 3103 
Q 1463 3103 1205 2759 
Q 947 2416 947 1791 
Q 947 1169 1205 825 
Q 1463 481 1925 481 
Q 2391 481 2648 825 
Q 2906 1169 2906 1791 
z
M 3481 434 
Q 3481 -459 3084 -895 
Q 2688 -1331 1869 -1331 
Q 1566 -1331 1297 -1286 
Q 1028 -1241 775 -1147 
L 775 -588 
Q 1028 -725 1275 -790 
Q 1522 -856 1778 -856 
Q 2344 -856 2625 -561 
Q 2906 -266 2906 331 
L 2906 616 
Q 2728 306 2450 153 
Q 2172 0 1784 0 
Q 1141 0 747 490 
Q 353 981 353 1791 
Q 353 2603 747 3093 
Q 1141 3584 1784 3584 
Q 2172 3584 2450 3431 
Q 2728 3278 2906 2969 
L 2906 3500 
L 3481 3500 
L 3481 434 
z
" transform="scale(0.015625)"/>
      <path id="DejaVuSans-3a" d="M 750 794 
L 1409 794 
L 1409 0 
L 750 0 
L 750 794 
z
M 750 3309 
L 1409 3309 
L 1409 2516 
L 750 2516 
L 750 3309 
z
" transform="scale(0.015625)"/>
     </defs>
     <use xlink:href="#DejaVuSans-66"/>
     <use xlink:href="#DejaVuSans-61" transform="translate(35.205078 0)"/>
     <use xlink:href="#DejaVuSans-6c" transform="translate(96.484375 0)"/>
     <use xlink:href="#DejaVuSans-6c" transform="translate(124.267578 0)"/>
     <use xlink:href="#DejaVuSans-73" transform="translate(152.050781 0)"/>
     <use xlink:href="#DejaVuSans-20" transform="translate(204.150391 0)"/>
     <use xlink:href="#DejaVuSans-62" transform="translate(235.9375 0)"/>
     <use xlink:href="#DejaVuSans-65" transform="translate(299.414062 0)"/>
     <use xlink:href="#DejaVuSans-74" transform="translate(360.9375 0)"/>
     <use xlink:href="#DejaVuSans-77" transform="translate(400.146484 0)"/>
     <use xlink:href="#DejaVuSans-65" transform="translate(481.933594 0)"/>
     <use xlink:href="#DejaVuSans-65" transform="translate(543.457031 0)"/>
     <use xlink:href="#DejaVuSans-6e" transform="translate(604.980469 0)"/>
     <use xlink:href="#DejaVuSans-20" transform="translate(668.359375 0)"/>
     <use xlink:href="#DejaVuSans-30" transform="translate(700.146484 0)"/>
     <use xlink:href="#DejaVuSans-20" transform="translate(763.769531 0)"/>
     <use xlink:href="#DejaVuSans-61" transform="translate(795.556641 0)"/>
     <use xlink:href="#DejaVuSans-6e" transform="translate(856.835938 0)"/>
     <use xlink:href="#DejaVuSans-64" transform="translate(920.214844 0)"/>
     <use xlink:href="#DejaVuSans-20" transform="translate(983.691406 0)"/>
     <use xlink:href="#DejaVuSans-78" transform="translate(1015.478516 0)"/>
     <use xlink:href="#DejaVuSans-20" transform="translate(1074.658203 0)"/>
     <use xlink:href="#DejaVuSans-69" transform="translate(1106.445312 0)"/>
     <use xlink:href="#DejaVuSans-73" transform="translate(1134.228516 0)"/>
     <use xlink:href="#DejaVuSans-20" transform="translate(1186.328125 0)"/>
     <use xlink:href="#DejaVuSans-67" transform="translate(1218.115234 0)"/>
     <use xlink:href="#DejaVuSans-69" transform="translate(1281.591797 0)"/>
     <use xlink:href="#DejaVuSans-76" transform="translate(1309.375 0)"/>
     <use xlink:href="#DejaVuSans-65" transform="translate(1368.554688 0)"/>
     <use xlink:href="#DejaVuSans-6e" transform="translate(1430.078125 0)"/>
     <use xlink:href="#DejaVuSans-20" transform="translate(1493.457031 0)"/>
     <use xlink:href="#DejaVuSans-62" transform="translate(1525.244141 0)"/>
     <use xlink:href="#DejaVuSans-79" transform="translate(1588.720703 0)"/>
     <use xlink:href="#DejaVuSans-3a" transform="translate(1640.650391 0)"/>
    </g>
    <!-- $\int_0^x \frac{1}{\sqrt{2\pi\sigma^2}}e^{-\frac{t^2}{2\sigma^2}}dt$ -->
    <g transform="translate(72.448333 144.8225) scale(0.1 -0.1)">
     <defs>
      <path id="DejaVuSansDisplay-222b" d="M 2134 5525 
Q 2172 6263 2528 6556 
Q 2884 6850 3218 6850 
Q 3553 6850 3833 6575 
Q 4113 6300 4200 5678 
L 3544 5613 
Q 3469 6188 3219 6188 
Q 2906 6188 2869 5413 
L 2581 -597 
Q 2547 -1334 2187 -1628 
Q 1828 -1922 1497 -1922 
Q 1163 -1922 883 -1647 
Q 603 -1372 516 -750 
L 1172 -684 
Q 1247 -1259 1497 -1259 
Q 1809 -1259 1847 -488 
L 2134 5525 
z
" transform="scale(0.015625)"/>
      <path id="DejaVuSans-Oblique-78" d="M 3841 3500 
L 2234 1784 
L 3219 0 
L 2559 0 
L 1819 1388 
L 531 0 
L -166 0 
L 1556 1844 
L 641 3500 
L 1300 3500 
L 1972 2234 
L 3144 3500 
L 3841 3500 
z
" transform="scale(0.015625)"/>
      <path id="STIXSizeOneSym-Regular-221a" d="M 6970 9933 
L 3373 -1888 
L 3104 -1888 
L 1626 2918 
Q 1555 3149 1465 3251 
Q 1376 3354 1229 3354 
Q 1011 3354 794 3181 
L 717 3309 
L 1766 4115 
L 1926 4115 
L 3379 -602 
L 3405 -602 
L 6605 9933 
L 6970 9933 
z
" transform="scale(0.015625)"/>
      <path id="DejaVuSans-Oblique-3c0" d="M 584 3500 
L 3938 3500 
L 3825 2925 
L 3384 2925 
L 2966 775 
Q 2922 550 2981 450 
Q 3038 353 3209 353 
Q 3256 353 3325 363 
Q 3397 369 3419 372 
L 3338 -44 
Q 3222 -84 3103 -103 
Q 2981 -122 2866 -122 
Q 2491 -122 2388 81 
Q 2284 288 2391 838 
L 2797 2925 
L 1506 2925 
L 938 0 
L 350 0 
L 919 2925 
L 472 2925 
L 584 3500 
z
" transform="scale(0.015625)"/>
      <path id="DejaVuSans-Oblique-3c3" d="M 2219 3044 
Q 1744 3044 1422 2700 
Q 1081 2341 969 1747 
Q 844 1119 1044 756 
Q 1241 397 1706 397 
Q 2166 397 2503 759 
Q 2844 1122 2966 1747 
Q 3075 2319 2881 2700 
Q 2700 3044 2219 3044 
z
M 2309 3503 
L 4219 3500 
L 4106 2925 
L 3463 2925 
Q 3706 2438 3575 1747 
Q 3406 888 2884 400 
Q 2359 -91 1609 -91 
Q 856 -91 525 400 
Q 194 888 363 1747 
Q 528 2609 1050 3097 
Q 1484 3503 2309 3503 
z
" transform="scale(0.015625)"/>
      <path id="DejaVuSans-Oblique-65" d="M 3078 2063 
Q 3088 2113 3092 2166 
Q 3097 2219 3097 2272 
Q 3097 2653 2873 2875 
Q 2650 3097 2266 3097 
Q 1838 3097 1509 2826 
Q 1181 2556 1013 2059 
L 3078 2063 
z
M 3578 1613 
L 903 1613 
Q 884 1494 878 1425 
Q 872 1356 872 1306 
Q 872 872 1139 634 
Q 1406 397 1894 397 
Q 2269 397 2603 481 
Q 2938 566 3225 728 
L 3116 159 
Q 2806 34 2476 -28 
Q 2147 -91 1806 -91 
Q 1078 -91 686 257 
Q 294 606 294 1247 
Q 294 1794 489 2264 
Q 684 2734 1063 3103 
Q 1306 3334 1642 3459 
Q 1978 3584 2356 3584 
Q 2950 3584 3301 3228 
Q 3653 2872 3653 2272 
Q 3653 2128 3634 1964 
Q 3616 1800 3578 1613 
z
" transform="scale(0.015625)"/>
      <path id="DejaVuSans-Oblique-74" d="M 2706 3500 
L 2619 3053 
L 1472 3053 
L 1100 1153 
Q 1081 1047 1072 975 
Q 1063 903 1063 863 
Q 1063 663 1183 572 
Q 1303 481 1569 481 
L 2150 481 
L 2053 0 
L 1503 0 
Q 991 0 739 200 
Q 488 400 488 806 
Q 488 878 497 964 
Q 506 1050 525 1153 
L 897 3053 
L 409 3053 
L 500 3500 
L 978 3500 
L 1172 4494 
L 1747 4494 
L 1556 3500 
L 2706 3500 
z
" transform="scale(0.015625)"/>
      <path id="DejaVuSans-Oblique-64" d="M 2675 525 
Q 2444 222 2128 65 
Q 1813 -91 1428 -91 
Q 903 -91 598 267 
Q 294 625 294 1247 
Q 294 1766 478 2236 
Q 663 2706 1013 3078 
Q 1244 3325 1534 3454 
Q 1825 3584 2144 3584 
Q 2481 3584 2739 3421 
Q 2997 3259 3138 2956 
L 3513 4863 
L 4091 4863 
L 3144 0 
L 2566 0 
L 2675 525 
z
M 891 1350 
Q 891 897 1095 644 
Q 1300 391 1663 391 
Q 1931 391 2161 520 
Q 2391 650 2566 903 
Q 2750 1166 2856 1509 
Q 2963 1853 2963 2188 
Q 2963 2622 2758 2865 
Q 2553 3109 2194 3109 
Q 1922 3109 1687 2981 
Q 1453 2853 1288 2613 
Q 1106 2353 998 2009 
Q 891 1666 891 1350 
z
" transform="scale(0.015625)"/>
     </defs>
     <use xlink:href="#DejaVuSansDisplay-222b" transform="translate(0 0.5625)"/>
     <use xlink:href="#DejaVuSans-Oblique-78" transform="translate(86.744141 85.71875) scale(0.7)"/>
     <use xlink:href="#DejaVuSans-30" transform="translate(71.759766 -51.34375) scale(0.7)"/>
     <use xlink:href="#DejaVuSans-31" transform="translate(223.169922 44.359375) scale(0.7)"/>
     <use xlink:href="#STIXSizeOneSym-Regular-221a" transform="translate(128.169922 -63.879688) scale(0.467634)"/>
     <use xlink:href="#DejaVuSans-32" transform="translate(186.308235 -76.429688) scale(0.7)"/>
     <use xlink:href="#DejaVuSans-Oblique-3c0" transform="translate(230.844368 -76.429688) scale(0.7)"/>
     <use xlink:href="#DejaVuSans-Oblique-3c3" transform="translate(272.987923 -76.429688) scale(0.7)"/>
     <use xlink:href="#DejaVuSans-32" transform="translate(320.484053 -49.632812) scale(0.49)"/>
     <use xlink:href="#DejaVuSans-Oblique-65" transform="translate(374.823408 0.5625)"/>
     <use xlink:href="#DejaVuSans-2212" transform="translate(440.996742 38.84375) scale(0.7)"/>
     <use xlink:href="#DejaVuSans-Oblique-74" transform="translate(520.649085 69.501563) scale(0.49)"/>
     <use xlink:href="#DejaVuSans-32" transform="translate(543.115343 88.259375) scale(0.343)"/>
     <use xlink:href="#DejaVuSans-32" transform="translate(499.649085 3.411719) scale(0.49)"/>
     <use xlink:href="#DejaVuSans-Oblique-3c3" transform="translate(530.824378 3.411719) scale(0.49)"/>
     <use xlink:href="#DejaVuSans-32" transform="translate(564.07167 22.169531) scale(0.343)"/>
     <use xlink:href="#DejaVuSans-Oblique-64" transform="translate(598.718593 0.5625)"/>
     <use xlink:href="#DejaVuSans-Oblique-74" transform="translate(662.195156 0.5625)"/>
     <path d="M 128.169922 19.359375 
L 128.169922 25.609375 
L 362.323408 25.609375 
L 362.323408 19.359375 
L 128.169922 19.359375 
z
"/>
     <path d="M 177.558235 4.359375 
L 177.558235 8.734375 
L 362.323408 8.734375 
L 362.323408 4.359375 
L 177.558235 4.359375 
z
"/>
     <path d="M 499.649085 52.001563 
L 499.649085 56.376563 
L 587.234218 56.376563 
L 587.234218 52.001563 
L 499.649085 52.001563 
z
"/>
    </g>
   </g>
   <g id="text_33">
    <!-- Area Under the Gaussian Distribution Curve -->
    <g transform="translate(224.818281 34.56) scale(0.14 -0.14)">
     <defs>
      <path id="DejaVuSans-55" d="M 556 4666 
L 1191 4666 
L 1191 1831 
Q 1191 1081 1462 751 
Q 1734 422 2344 422 
Q 2950 422 3222 751 
Q 3494 1081 3494 1831 
L 3494 4666 
L 4128 4666 
L 4128 1753 
Q 4128 841 3676 375 
Q 3225 -91 2344 -91 
Q 1459 -91 1007 375 
Q 556 841 556 1753 
L 556 4666 
z
" transform="scale(0.015625)"/>
      <path id="DejaVuSans-47" d="M 3809 666 
L 3809 1919 
L 2778 1919 
L 2778 2438 
L 4434 2438 
L 4434 434 
Q 4069 175 3628 42 
Q 3188 -91 2688 -91 
Q 1594 -91 976 548 
Q 359 1188 359 2328 
Q 359 3472 976 4111 
Q 1594 4750 2688 4750 
Q 3144 4750 3555 4637 
Q 3966 4525 4313 4306 
L 4313 3634 
Q 3963 3931 3569 4081 
Q 3175 4231 2741 4231 
Q 1884 4231 1454 3753 
Q 1025 3275 1025 2328 
Q 1025 1384 1454 906 
Q 1884 428 2741 428 
Q 3075 428 3337 486 
Q 3600 544 3809 666 
z
" transform="scale(0.015625)"/>
      <path id="DejaVuSans-43" d="M 4122 4306 
L 4122 3641 
Q 3803 3938 3442 4084 
Q 3081 4231 2675 4231 
Q 1875 4231 1450 3742 
Q 1025 3253 1025 2328 
Q 1025 1406 1450 917 
Q 1875 428 2675 428 
Q 3081 428 3442 575 
Q 3803 722 4122 1019 
L 4122 359 
Q 3791 134 3420 21 
Q 3050 -91 2638 -91 
Q 1578 -91 968 557 
Q 359 1206 359 2328 
Q 359 3453 968 4101 
Q 1578 4750 2638 4750 
Q 3056 4750 3426 4639 
Q 3797 4528 4122 4306 
z
" transform="scale(0.015625)"/>
     </defs>
     <use xlink:href="#DejaVuSans-41"/>
     <use xlink:href="#DejaVuSans-72" transform="translate(68.408203 0)"/>
     <use xlink:href="#DejaVuSans-65" transform="translate(107.271484 0)"/>
     <use xlink:href="#DejaVuSans-61" transform="translate(168.794922 0)"/>
     <use xlink:href="#DejaVuSans-20" transform="translate(230.074219 0)"/>
     <use xlink:href="#DejaVuSans-55" transform="translate(261.861328 0)"/>
     <use xlink:href="#DejaVuSans-6e" transform="translate(335.054688 0)"/>
     <use xlink:href="#DejaVuSans-64" transform="translate(398.433594 0)"/>
     <use xlink:href="#DejaVuSans-65" transform="translate(461.910156 0)"/>
     <use xlink:href="#DejaVuSans-72" transform="translate(523.433594 0)"/>
     <use xlink:href="#DejaVuSans-20" transform="translate(564.546875 0)"/>
     <use xlink:href="#DejaVuSans-74" transform="translate(596.333984 0)"/>
     <use xlink:href="#DejaVuSans-68" transform="translate(635.542969 0)"/>
     <use xlink:href="#DejaVuSans-65" transform="translate(698.921875 0)"/>
     <use xlink:href="#DejaVuSans-20" transform="translate(760.445312 0)"/>
     <use xlink:href="#DejaVuSans-47" transform="translate(792.232422 0)"/>
     <use xlink:href="#DejaVuSans-61" transform="translate(869.722656 0)"/>
     <use xlink:href="#DejaVuSans-75" transform="translate(931.001953 0)"/>
     <use xlink:href="#DejaVuSans-73" transform="translate(994.380859 0)"/>
     <use xlink:href="#DejaVuSans-73" transform="translate(1046.480469 0)"/>
     <use xlink:href="#DejaVuSans-69" transform="translate(1098.580078 0)"/>
     <use xlink:href="#DejaVuSans-61" transform="translate(1126.363281 0)"/>
     <use xlink:href="#DejaVuSans-6e" transform="translate(1187.642578 0)"/>
     <use xlink:href="#DejaVuSans-20" transform="translate(1251.021484 0)"/>
     <use xlink:href="#DejaVuSans-44" transform="translate(1282.808594 0)"/>
     <use xlink:href="#DejaVuSans-69" transform="translate(1359.810547 0)"/>
     <use xlink:href="#DejaVuSans-73" transform="translate(1387.59375 0)"/>
     <use xlink:href="#DejaVuSans-74" transform="translate(1439.693359 0)"/>
     <use xlink:href="#DejaVuSans-72" transform="translate(1478.902344 0)"/>
     <use xlink:href="#DejaVuSans-69" transform="translate(1520.015625 0)"/>
     <use xlink:href="#DejaVuSans-62" transform="translate(1547.798828 0)"/>
     <use xlink:href="#DejaVuSans-75" transform="translate(1611.275391 0)"/>
     <use xlink:href="#DejaVuSans-74" transform="translate(1674.654297 0)"/>
     <use xlink:href="#DejaVuSans-69" transform="translate(1713.863281 0)"/>
     <use xlink:href="#DejaVuSans-6f" transform="translate(1741.646484 0)"/>
     <use xlink:href="#DejaVuSans-6e" transform="translate(1802.828125 0)"/>
     <use xlink:href="#DejaVuSans-20" transform="translate(1866.207031 0)"/>
     <use xlink:href="#DejaVuSans-43" transform="translate(1897.994141 0)"/>
     <use xlink:href="#DejaVuSans-75" transform="translate(1967.818359 0)"/>
     <use xlink:href="#DejaVuSans-72" transform="translate(2031.197266 0)"/>
     <use xlink:href="#DejaVuSans-76" transform="translate(2072.310547 0)"/>
     <use xlink:href="#DejaVuSans-65" transform="translate(2131.490234 0)"/>
    </g>
   </g>
  </g>
  <g id="text_34">
   <!-- Figure A1.1: The shaded area represents the probability of a  -->
   <g transform="translate(192.454531 415.362406) scale(0.11 -0.11)">
    <defs>
     <path id="DejaVuSans-46" d="M 628 4666 
L 3309 4666 
L 3309 4134 
L 1259 4134 
L 1259 2759 
L 3109 2759 
L 3109 2228 
L 1259 2228 
L 1259 0 
L 628 0 
L 628 4666 
z
" transform="scale(0.015625)"/>
    </defs>
    <use xlink:href="#DejaVuSans-46"/>
    <use xlink:href="#DejaVuSans-69" transform="translate(50.269531 0)"/>
    <use xlink:href="#DejaVuSans-67" transform="translate(78.052734 0)"/>
    <use xlink:href="#DejaVuSans-75" transform="translate(141.529297 0)"/>
    <use xlink:href="#DejaVuSans-72" transform="translate(204.908203 0)"/>
    <use xlink:href="#DejaVuSans-65" transform="translate(243.771484 0)"/>
    <use xlink:href="#DejaVuSans-20" transform="translate(305.294922 0)"/>
    <use xlink:href="#DejaVuSans-41" transform="translate(337.082031 0)"/>
    <use xlink:href="#DejaVuSans-31" transform="translate(405.490234 0)"/>
    <use xlink:href="#DejaVuSans-2e" transform="translate(469.113281 0)"/>
    <use xlink:href="#DejaVuSans-31" transform="translate(500.900391 0)"/>
    <use xlink:href="#DejaVuSans-3a" transform="translate(564.523438 0)"/>
    <use xlink:href="#DejaVuSans-20" transform="translate(598.214844 0)"/>
    <use xlink:href="#DejaVuSans-54" transform="translate(630.001953 0)"/>
    <use xlink:href="#DejaVuSans-68" transform="translate(691.085938 0)"/>
    <use xlink:href="#DejaVuSans-65" transform="translate(754.464844 0)"/>
    <use xlink:href="#DejaVuSans-20" transform="translate(815.988281 0)"/>
    <use xlink:href="#DejaVuSans-73" transform="translate(847.775391 0)"/>
    <use xlink:href="#DejaVuSans-68" transform="translate(899.875 0)"/>
    <use xlink:href="#DejaVuSans-61" transform="translate(963.253906 0)"/>
    <use xlink:href="#DejaVuSans-64" transform="translate(1024.533203 0)"/>
    <use xlink:href="#DejaVuSans-65" transform="translate(1088.009766 0)"/>
    <use xlink:href="#DejaVuSans-64" transform="translate(1149.533203 0)"/>
    <use xlink:href="#DejaVuSans-20" transform="translate(1213.009766 0)"/>
    <use xlink:href="#DejaVuSans-61" transform="translate(1244.796875 0)"/>
    <use xlink:href="#DejaVuSans-72" transform="translate(1306.076172 0)"/>
    <use xlink:href="#DejaVuSans-65" transform="translate(1344.939453 0)"/>
    <use xlink:href="#DejaVuSans-61" transform="translate(1406.462891 0)"/>
    <use xlink:href="#DejaVuSans-20" transform="translate(1467.742188 0)"/>
    <use xlink:href="#DejaVuSans-72" transform="translate(1499.529297 0)"/>
    <use xlink:href="#DejaVuSans-65" transform="translate(1538.392578 0)"/>
    <use xlink:href="#DejaVuSans-70" transform="translate(1599.916016 0)"/>
    <use xlink:href="#DejaVuSans-72" transform="translate(1663.392578 0)"/>
    <use xlink:href="#DejaVuSans-65" transform="translate(1702.255859 0)"/>
    <use xlink:href="#DejaVuSans-73" transform="translate(1763.779297 0)"/>
    <use xlink:href="#DejaVuSans-65" transform="translate(1815.878906 0)"/>
    <use xlink:href="#DejaVuSans-6e" transform="translate(1877.402344 0)"/>
    <use xlink:href="#DejaVuSans-74" transform="translate(1940.78125 0)"/>
    <use xlink:href="#DejaVuSans-73" transform="translate(1979.990234 0)"/>
    <use xlink:href="#DejaVuSans-20" transform="translate(2032.089844 0)"/>
    <use xlink:href="#DejaVuSans-74" transform="translate(2063.876953 0)"/>
    <use xlink:href="#DejaVuSans-68" transform="translate(2103.085938 0)"/>
    <use xlink:href="#DejaVuSans-65" transform="translate(2166.464844 0)"/>
    <use xlink:href="#DejaVuSans-20" transform="translate(2227.988281 0)"/>
    <use xlink:href="#DejaVuSans-70" transform="translate(2259.775391 0)"/>
    <use xlink:href="#DejaVuSans-72" transform="translate(2323.251953 0)"/>
    <use xlink:href="#DejaVuSans-6f" transform="translate(2362.115234 0)"/>
    <use xlink:href="#DejaVuSans-62" transform="translate(2423.296875 0)"/>
    <use xlink:href="#DejaVuSans-61" transform="translate(2486.773438 0)"/>
    <use xlink:href="#DejaVuSans-62" transform="translate(2548.052734 0)"/>
    <use xlink:href="#DejaVuSans-69" transform="translate(2611.529297 0)"/>
    <use xlink:href="#DejaVuSans-6c" transform="translate(2639.3125 0)"/>
    <use xlink:href="#DejaVuSans-69" transform="translate(2667.095703 0)"/>
    <use xlink:href="#DejaVuSans-74" transform="translate(2694.878906 0)"/>
    <use xlink:href="#DejaVuSans-79" transform="translate(2734.087891 0)"/>
    <use xlink:href="#DejaVuSans-20" transform="translate(2793.267578 0)"/>
    <use xlink:href="#DejaVuSans-6f" transform="translate(2825.054688 0)"/>
    <use xlink:href="#DejaVuSans-66" transform="translate(2886.236328 0)"/>
    <use xlink:href="#DejaVuSans-20" transform="translate(2921.441406 0)"/>
    <use xlink:href="#DejaVuSans-61" transform="translate(2953.228516 0)"/>
    <use xlink:href="#DejaVuSans-20" transform="translate(3014.507812 0)"/>
   </g>
   <!-- deviation falling between 0 and x=1σ (34.1% of total area). -->
   <g transform="translate(195.703828 427.68) scale(0.11 -0.11)">
    <defs>
     <path id="DejaVuSans-25" d="M 4653 2053 
Q 4381 2053 4226 1822 
Q 4072 1591 4072 1178 
Q 4072 772 4226 539 
Q 4381 306 4653 306 
Q 4919 306 5073 539 
Q 5228 772 5228 1178 
Q 5228 1588 5073 1820 
Q 4919 2053 4653 2053 
z
M 4653 2450 
Q 5147 2450 5437 2106 
Q 5728 1763 5728 1178 
Q 5728 594 5436 251 
Q 5144 -91 4653 -91 
Q 4153 -91 3862 251 
Q 3572 594 3572 1178 
Q 3572 1766 3864 2108 
Q 4156 2450 4653 2450 
z
M 1428 4353 
Q 1159 4353 1004 4120 
Q 850 3888 850 3481 
Q 850 3069 1003 2837 
Q 1156 2606 1428 2606 
Q 1700 2606 1854 2837 
Q 2009 3069 2009 3481 
Q 2009 3884 1853 4118 
Q 1697 4353 1428 4353 
z
M 4250 4750 
L 4750 4750 
L 1831 -91 
L 1331 -91 
L 4250 4750 
z
M 1428 4750 
Q 1922 4750 2215 4408 
Q 2509 4066 2509 3481 
Q 2509 2891 2217 2550 
Q 1925 2209 1428 2209 
Q 931 2209 642 2551 
Q 353 2894 353 3481 
Q 353 4063 643 4406 
Q 934 4750 1428 4750 
z
" transform="scale(0.015625)"/>
    </defs>
    <use xlink:href="#DejaVuSans-64"/>
    <use xlink:href="#DejaVuSans-65" transform="translate(63.476562 0)"/>
    <use xlink:href="#DejaVuSans-76" transform="translate(125 0)"/>
    <use xlink:href="#DejaVuSans-69" transform="translate(184.179688 0)"/>
    <use xlink:href="#DejaVuSans-61" transform="translate(211.962891 0)"/>
    <use xlink:href="#DejaVuSans-74" transform="translate(273.242188 0)"/>
    <use xlink:href="#DejaVuSans-69" transform="translate(312.451172 0)"/>
    <use xlink:href="#DejaVuSans-6f" transform="translate(340.234375 0)"/>
    <use xlink:href="#DejaVuSans-6e" transform="translate(401.416016 0)"/>
    <use xlink:href="#DejaVuSans-20" transform="translate(464.794922 0)"/>
    <use xlink:href="#DejaVuSans-66" transform="translate(496.582031 0)"/>
    <use xlink:href="#DejaVuSans-61" transform="translate(531.787109 0)"/>
    <use xlink:href="#DejaVuSans-6c" transform="translate(593.066406 0)"/>
    <use xlink:href="#DejaVuSans-6c" transform="translate(620.849609 0)"/>
    <use xlink:href="#DejaVuSans-69" transform="translate(648.632812 0)"/>
    <use xlink:href="#DejaVuSans-6e" transform="translate(676.416016 0)"/>
    <use xlink:href="#DejaVuSans-67" transform="translate(739.794922 0)"/>
    <use xlink:href="#DejaVuSans-20" transform="translate(803.271484 0)"/>
    <use xlink:href="#DejaVuSans-62" transform="translate(835.058594 0)"/>
    <use xlink:href="#DejaVuSans-65" transform="translate(898.535156 0)"/>
    <use xlink:href="#DejaVuSans-74" transform="translate(960.058594 0)"/>
    <use xlink:href="#DejaVuSans-77" transform="translate(999.267578 0)"/>
    <use xlink:href="#DejaVuSans-65" transform="translate(1081.054688 0)"/>
    <use xlink:href="#DejaVuSans-65" transform="translate(1142.578125 0)"/>
    <use xlink:href="#DejaVuSans-6e" transform="translate(1204.101562 0)"/>
    <use xlink:href="#DejaVuSans-20" transform="translate(1267.480469 0)"/>
    <use xlink:href="#DejaVuSans-30" transform="translate(1299.267578 0)"/>
    <use xlink:href="#DejaVuSans-20" transform="translate(1362.890625 0)"/>
    <use xlink:href="#DejaVuSans-61" transform="translate(1394.677734 0)"/>
    <use xlink:href="#DejaVuSans-6e" transform="translate(1455.957031 0)"/>
    <use xlink:href="#DejaVuSans-64" transform="translate(1519.335938 0)"/>
    <use xlink:href="#DejaVuSans-20" transform="translate(1582.8125 0)"/>
    <use xlink:href="#DejaVuSans-78" transform="translate(1614.599609 0)"/>
    <use xlink:href="#DejaVuSans-3d" transform="translate(1673.779297 0)"/>
    <use xlink:href="#DejaVuSans-31" transform="translate(1757.568359 0)"/>
    <use xlink:href="#DejaVuSans-3c3" transform="translate(1821.191406 0)"/>
    <use xlink:href="#DejaVuSans-20" transform="translate(1884.570312 0)"/>
    <use xlink:href="#DejaVuSans-28" transform="translate(1916.357422 0)"/>
    <use xlink:href="#DejaVuSans-33" transform="translate(1955.371094 0)"/>
    <use xlink:href="#DejaVuSans-34" transform="translate(2018.994141 0)"/>
    <use xlink:href="#DejaVuSans-2e" transform="translate(2082.617188 0)"/>
    <use xlink:href="#DejaVuSans-31" transform="translate(2114.404297 0)"/>
    <use xlink:href="#DejaVuSans-25" transform="translate(2178.027344 0)"/>
    <use xlink:href="#DejaVuSans-20" transform="translate(2273.046875 0)"/>
    <use xlink:href="#DejaVuSans-6f" transform="translate(2304.833984 0)"/>
    <use xlink:href="#DejaVuSans-66" transform="translate(2366.015625 0)"/>
    <use xlink:href="#DejaVuSans-20" transform="translate(2401.220703 0)"/>
    <use xlink:href="#DejaVuSans-74" transform="translate(2433.007812 0)"/>
    <use xlink:href="#DejaVuSans-6f" transform="translate(2472.216797 0)"/>
    <use xlink:href="#DejaVuSans-74" transform="translate(2533.398438 0)"/>
    <use xlink:href="#DejaVuSans-61" transform="translate(2572.607422 0)"/>
    <use xlink:href="#DejaVuSans-6c" transform="translate(2633.886719 0)"/>
    <use xlink:href="#DejaVuSans-20" transform="translate(2661.669922 0)"/>
    <use xlink:href="#DejaVuSans-61" transform="translate(2693.457031 0)"/>
    <use xlink:href="#DejaVuSans-72" transform="translate(2754.736328 0)"/>
    <use xlink:href="#DejaVuSans-65" transform="translate(2793.599609 0)"/>
    <use xlink:href="#DejaVuSans-61" transform="translate(2855.123047 0)"/>
    <use xlink:href="#DejaVuSans-29" transform="translate(2916.402344 0)"/>
    <use xlink:href="#DejaVuSans-2e" transform="translate(2955.416016 0)"/>
   </g>
  </g>
 </g>
 <defs>
  <clipPath id="p65c3145dbc">
   <rect x="50.6" y="40.56" width="655.45" height="333.64"/>
  </clipPath>
 </defs>
</svg>
